<svg width="20" height="20" viewBox="0 0 20 20" fill="none" xmlns="http://www.w3.org/2000/svg">
<path d="M18.2347 0H1.76531C0.791875 0 0 0.792188 0 1.76531V18.235C0 19.2078 0.791875 20 1.76531 20H18.235C19.2081 20 20 19.2078 20 18.2347V1.76531C20 0.792188 19.2081 0 18.2347 0ZM18.8234 1.76531V9.41156H10.5881V1.17656H18.2347C18.5594 1.17656 18.8234 1.44063 18.8234 1.76531ZM1.17656 18.2347V1.76531C1.17656 1.44063 1.44094 1.17656 1.76531 1.17656H9.41187V18.8237H1.76531C1.44063 18.8234 1.17656 18.5594 1.17656 18.2347ZM18.2347 18.8234H10.5881V10.5878H18.8234V18.2347C18.8234 18.5594 18.5594 18.8234 18.2347 18.8234Z" fill="white"/>
</svg>
