<svg width="21" height="21" viewBox="0 0 21 21" fill="none" xmlns="http://www.w3.org/2000/svg">
<path d="M0.1 10.5C0.1 4.75188 4.7514 0.1 10.5 0.1C16.2481 0.1 20.9 4.7514 20.9 10.5C20.9 16.2481 16.2486 20.9 10.5 20.9C4.75188 20.9 0.1 16.2486 0.1 10.5ZM1.29999 10.5C1.29999 15.573 5.42704 19.7 10.5 19.7C15.573 19.7 19.7 15.573 19.7 10.5C19.7 5.42704 15.573 1.29999 10.5 1.29999C5.42704 1.29999 1.29999 5.427 1.29999 10.5Z" fill="white" stroke="white" strokeWidth="0.2"/>
<path d="M15.139 6.71226L15.0683 6.64155L15.139 6.71226C15.3733 6.47795 15.7532 6.47794 15.9876 6.71226C16.2219 6.94658 16.2219 7.32643 15.9876 7.56075L9.26075 14.2876C9.02655 14.5218 8.64648 14.5218 8.41222 14.2876L5.01255 10.8879C4.77824 10.6536 4.77824 10.2737 5.01255 10.0394L5.01256 10.0394C5.24683 9.80505 5.62677 9.80505 5.86109 10.0394L5.9318 9.96865L5.86109 10.0394L8.76581 12.9441L8.83652 13.0148L8.90723 12.9441L15.139 6.71226Z" fill="white" stroke="white" strokeWidth="0.2"/>
</svg>
