<svg width="31" height="32" viewBox="0 0 31 32" fill="none" xmlns="http://www.w3.org/2000/svg">
<mask id="mask0" mask-type="alpha" maskUnits="userSpaceOnUse" x="0" y="0" width="31" height="32">
<path d="M21.5003 1.91273L19.0003 8.41273L21.5002 15.9126C24.0002 14.2459 29.1002 10.9126 29.5002 10.9126C30.0002 10.9126 31.5002 18.4126 30.0002 23.4126C28.5002 28.4126 17.5003 37.9126 5.50025 25.9126C-6.49975 13.9126 6.50025 1.91273 7.50025 0.412734C8.30025 -0.787266 17.1669 0.912734 21.5003 1.91273Z" fill="#C4C4C4"/>
</mask>
<g mask="url(#mask0)">
<path d="M15 3.4126C8.93476 3.4126 4 8.34736 4 14.4126C4 20.4782 8.93476 25.4126 15 25.4126C21.0656 25.4126 26 20.4782 26 14.4126C26 8.34736 21.0656 3.4126 15 3.4126ZM15 23.3819C10.0544 23.3819 6.03077 19.3582 6.03077 14.4126C6.03077 9.46705 10.0544 5.44337 15 5.44337C19.9456 5.44337 23.9692 9.467 23.9692 14.4126C23.9692 19.3582 19.9456 23.3819 15 23.3819Z" fill="#48519D"/>
</g>
</svg>
