<svg width="25" height="25" viewBox="0 0 25 25" fill="none" xmlns="http://www.w3.org/2000/svg">
<path d="M20.946 14.6958C20.8564 14.6958 20.7705 14.6602 20.7071 14.5969C20.6437 14.5335 20.6082 14.4476 20.6082 14.358V13.3681C20.6082 13.2785 20.6437 13.1926 20.7071 13.1292C20.7705 13.0659 20.8564 13.0303 20.946 13.0303C21.0356 13.0303 21.1215 13.0659 21.1849 13.1292C21.2482 13.1926 21.2838 13.2785 21.2838 13.3681V14.358C21.2838 14.4476 21.2482 14.5335 21.1849 14.5969C21.1215 14.6602 21.0356 14.6958 20.946 14.6958Z" fill="white"/>
<path d="M15.8783 0.475293H15.8784C16.021 0.475323 16.1578 0.532001 16.2586 0.632858L15.8783 0.475293ZM15.8783 0.475293H4.05402C3.91138 0.475293 3.77458 0.531958 3.67372 0.632822C3.57285 0.733686 3.51619 0.870487 3.51619 1.01313V23.9861C3.51619 24.1287 3.57285 24.2655 3.67371 24.3664C3.77458 24.4673 3.91138 24.5239 4.05402 24.5239H20.9459C21.0886 24.5239 21.2254 24.4673 21.3262 24.3664C21.4271 24.2655 21.4838 24.1287 21.4838 23.9861V20.0807C21.4838 19.9381 21.4271 19.8013 21.3262 19.7004C21.2254 19.5995 21.0886 19.5429 20.9459 19.5429C20.8033 19.5429 20.6665 19.5995 20.5656 19.7004C20.4647 19.8013 20.4081 19.9381 20.4081 20.0807V23.4483H4.59186V1.55097H15.6556L20.4081 6.30341V10.9996C20.4081 11.1423 20.4647 11.2791 20.5656 11.3799C20.6665 11.4808 20.8033 11.5375 20.9459 11.5375C21.0886 11.5375 21.2254 11.4808 21.3262 11.3799C21.4271 11.2791 21.4838 11.1423 21.4838 10.9996V6.0807V6.08066C21.4837 5.93804 21.427 5.80127 21.3262 5.70043C21.3262 5.70042 21.3262 5.70041 21.3262 5.7004L16.2586 0.632878L15.8783 0.475293Z" fill="white" stroke="white" strokeWidth="0.4"/>
<path d="M20.946 18.0542C20.8564 18.0542 20.7705 18.0186 20.7071 17.9552C20.6437 17.8919 20.6082 17.8059 20.6082 17.7163V16.7231C20.6082 16.6335 20.6437 16.5476 20.7071 16.4842C20.7705 16.4208 20.8564 16.3853 20.946 16.3853C21.0356 16.3853 21.1215 16.4208 21.1849 16.4842C21.2482 16.5476 21.2838 16.6335 21.2838 16.7231V17.7163C21.2838 17.8059 21.2482 17.8919 21.1849 17.9552C21.1215 18.0186 21.0356 18.0542 20.946 18.0542Z" fill="white"/>
<path d="M20.9458 6.41854H15.8782C15.7886 6.41854 15.7027 6.38294 15.6394 6.31959C15.576 6.25623 15.5404 6.1703 15.5404 6.0807V1.01313C15.5404 0.923531 15.576 0.8376 15.6394 0.774243C15.7027 0.710886 15.7886 0.675293 15.8782 0.675293C15.9678 0.675293 16.0538 0.710886 16.1171 0.774243C16.1805 0.8376 16.2161 0.923531 16.2161 1.01313V5.74286H20.9458C21.0354 5.74286 21.1213 5.77845 21.1847 5.84181C21.248 5.90517 21.2836 5.9911 21.2836 6.0807C21.2836 6.1703 21.248 6.25623 21.1847 6.31959C21.1213 6.38294 21.0354 6.41854 20.9458 6.41854Z" fill="white"/>
<path d="M9.34084 11.057H6.51618C6.42658 11.057 6.34065 11.0214 6.27729 10.958C6.21394 10.8947 6.17834 10.8087 6.17834 10.7191V7.89448C6.17834 7.80488 6.21394 7.71895 6.27729 7.65559C6.34065 7.59223 6.42658 7.55664 6.51618 7.55664H9.34084C9.43044 7.55664 9.51637 7.59223 9.57973 7.65559C9.64309 7.71895 9.67868 7.80488 9.67868 7.89448V10.7191C9.67868 10.8087 9.64309 10.8947 9.57973 10.958C9.51637 11.0214 9.43044 11.057 9.34084 11.057ZM6.85402 10.3813H9.00301V8.23232H6.85402V10.3813Z" fill="white"/>
<path d="M9.34084 16.235H6.51618C6.42658 16.235 6.34065 16.1995 6.27729 16.1361C6.21394 16.0727 6.17834 15.9868 6.17834 15.8972V13.0722C6.17834 12.9826 6.21394 12.8967 6.27729 12.8333C6.34065 12.77 6.42658 12.7344 6.51618 12.7344H9.34084C9.43044 12.7344 9.51637 12.77 9.57973 12.8333C9.64309 12.8967 9.67868 12.9826 9.67868 13.0722V15.8972C9.67868 15.9868 9.64309 16.0727 9.57973 16.1361C9.51637 16.1995 9.43044 16.235 9.34084 16.235ZM6.85402 15.5594H9.00301V13.41H6.85402V15.5594Z" fill="white"/>
<path d="M9.34084 21.4124H6.51618C6.42658 21.4124 6.34065 21.3769 6.27729 21.3135C6.21394 21.2501 6.17834 21.1642 6.17834 21.0746V18.2499C6.17834 18.1603 6.21394 18.0744 6.27729 18.0111C6.34065 17.9477 6.42658 17.9121 6.51618 17.9121H9.34084C9.43044 17.9121 9.51637 17.9477 9.57973 18.0111C9.64309 18.0744 9.67868 18.1603 9.67868 18.2499V21.0746C9.67868 21.1642 9.64309 21.2501 9.57973 21.3135C9.51637 21.3769 9.43044 21.4124 9.34084 21.4124ZM6.85402 20.7368H9.00301V18.5878H6.85402V20.7368Z" fill="white"/>
<path d="M18.4838 9.6454H11.5129C11.4233 9.6454 11.3374 9.60981 11.274 9.54645C11.2106 9.48309 11.175 9.39716 11.175 9.30756C11.175 9.21796 11.2106 9.13203 11.274 9.06868C11.3374 9.00532 11.4233 8.96973 11.5129 8.96973H18.4838C18.5734 8.96973 18.6594 9.00532 18.7227 9.06868C18.7861 9.13203 18.8217 9.21796 18.8217 9.30756C18.8217 9.39716 18.7861 9.48309 18.7227 9.54645C18.6594 9.60981 18.5734 9.6454 18.4838 9.6454Z" fill="white"/>
<path d="M18.4838 14.8227H11.5129C11.4233 14.8227 11.3374 14.7871 11.274 14.7237C11.2106 14.6603 11.175 14.5744 11.175 14.4848C11.175 14.3952 11.2106 14.3093 11.274 14.2459C11.3374 14.1826 11.4233 14.147 11.5129 14.147H18.4838C18.5734 14.147 18.6594 14.1826 18.7227 14.2459C18.7861 14.3093 18.8217 14.3952 18.8217 14.4848C18.8217 14.5744 18.7861 14.6603 18.7227 14.7237C18.6594 14.7871 18.5734 14.8227 18.4838 14.8227Z" fill="white"/>
<path d="M18.4838 19.9999H11.5129C11.4233 19.9999 11.3374 19.9643 11.274 19.9009C11.2106 19.8376 11.175 19.7517 11.175 19.6621C11.175 19.5725 11.2106 19.4865 11.274 19.4232C11.3374 19.3598 11.4233 19.3242 11.5129 19.3242H18.4838C18.5734 19.3242 18.6594 19.3598 18.7227 19.4232C18.7861 19.4865 18.8217 19.5725 18.8217 19.6621C18.8217 19.7517 18.7861 19.8376 18.7227 19.9009C18.6594 19.9643 18.5734 19.9999 18.4838 19.9999Z" fill="white"/>
</svg>
