<svg width="26" height="26" viewBox="0 0 26 26" fill="none" xmlns="http://www.w3.org/2000/svg">
<g clip-path="url(#clip0)">
<path d="M23.1616 21.5592H23.1616V16.2937L18.8596 10.9966L18.9372 10.9335L18.8596 10.9966C18.7759 10.8935 18.6685 10.873 18.6105 10.87C18.6105 10.87 18.6105 10.87 18.6105 10.87L23.1616 21.5592ZM23.1616 21.5592V21.6592M23.1616 21.5592V21.6592M23.1616 21.6592C23.1616 22.4875 22.4875 23.1616 21.6592 23.1616H4.34129C3.51293 23.1616 2.83886 22.4875 2.83886 21.6592V19.2061M23.1616 21.6592L2.83886 19.2061M2.83886 19.2061L7.3134 15.3989L7.2486 15.3228L7.3134 15.3989C7.44094 15.2904 7.62673 15.2894 7.75548 15.3963L7.81936 15.3194L7.75548 15.3963L10.5804 17.7421L10.6443 17.6651L2.83886 19.2061ZM23.1616 13.8028L20.0784 10.0065C19.7372 9.58634 19.2316 9.32951 18.6909 9.30175L18.6909 9.30175C18.1507 9.27443 17.6211 9.47771 17.2386 9.86084L11.0326 16.0765L8.7587 14.1883C8.04165 13.5929 7.00576 13.5991 6.29584 14.2031L2.83886 17.1444V4.34134C2.83886 3.51298 3.51293 2.83891 4.34129 2.83891H21.6592C22.4875 2.83891 23.1616 3.51297 23.1616 4.34134V13.8028ZM21.6592 1.26865H4.34129C2.64692 1.26865 1.26865 2.64697 1.26865 4.34134V21.6592C1.26865 23.3535 2.64692 24.7318 4.34129 24.7318H21.6592C23.3535 24.7318 24.7318 23.3535 24.7318 21.6591V4.34134C24.7318 2.64697 23.3535 1.26865 21.6592 1.26865Z" fill="#48519D" stroke="#48519D" strokeWidth="0.2"/>
<path d="M8.69147 4.13047C6.81449 4.13047 5.2877 5.65736 5.2877 7.53425C5.2877 9.41118 6.81454 10.938 8.69147 10.938C10.5684 10.938 12.0952 9.41118 12.0952 7.53425C12.0952 5.65731 10.5685 4.13047 8.69147 4.13047ZM8.69147 9.36782C7.6805 9.36782 6.8579 8.54517 6.8579 7.53425C6.8579 6.52328 7.6805 5.70068 8.69147 5.70068C9.70244 5.70068 10.525 6.52332 10.525 7.53425C10.525 8.54517 9.70244 9.36782 8.69147 9.36782Z" fill="#48519D" stroke="#48519D" strokeWidth="0.2"/>
</g>
<defs>
<clipPath id="clip0">
<rect width="26" height="26" fill="white"/>
</clipPath>
</defs>
</svg>
