<svg width="20" height="20" viewBox="0 0 20 20" fill="none" xmlns="http://www.w3.org/2000/svg">
<path d="M0.1 10C0.1 4.52823 4.52777 0.1 10 0.1C15.4718 0.1 19.9 4.52777 19.9 10C19.9 15.4718 15.4722 19.9 10 19.9C4.52823 19.9 0.1 15.4722 0.1 10ZM1.23332 10C1.23332 14.8341 5.16598 18.7667 10 18.7667C14.834 18.7667 18.7667 14.834 18.7667 10C18.7667 5.16598 14.834 1.23332 10 1.23332C5.16598 1.23332 1.23332 5.16594 1.23332 10Z" fill="white" stroke="white" strokeWidth="0.2"/>
<path d="M10.6106 9.99989L13.2065 7.40389C13.3754 7.23503 13.3754 6.96201 13.2065 6.79315C13.0376 6.62429 12.7646 6.62429 12.5957 6.79315L9.9998 9.38915L7.40393 6.79315C7.235 6.62429 6.96206 6.62429 6.7932 6.79315C6.62427 6.96201 6.62427 7.23503 6.7932 7.40389L9.38907 9.99989L6.7932 12.5959C6.62427 12.7647 6.62427 13.0378 6.7932 13.2066C6.87736 13.2909 6.988 13.3332 7.09857 13.3332C7.20913 13.3332 7.3197 13.2909 7.40393 13.2066L9.9998 10.6106L12.5957 13.2066C12.68 13.2909 12.7905 13.3332 12.9011 13.3332C13.0117 13.3332 13.1222 13.2909 13.2065 13.2066C13.3754 13.0378 13.3754 12.7647 13.2065 12.5959L10.6106 9.99989Z" fill="white"/>
</svg>
