<svg width="32" height="32" viewBox="0 0 32 32" fill="none" xmlns="http://www.w3.org/2000/svg">
<path d="M13.8801 15.0051L13.8801 15.0051L11.0146 17.8707L10.9439 17.9414L11.0146 18.0121L13.8801 20.8777L13.8801 20.8777C14.1462 21.1437 14.1462 21.575 13.8801 21.841L13.8801 21.8411C13.7472 21.9741 13.5729 22.0406 13.3984 22.0406C13.224 22.0406 13.0497 21.9741 12.9168 21.8411L12.9168 21.841L10.0512 18.9756L9.98047 18.9049L9.90976 18.9756L7.04416 21.841L7.04412 21.8411C6.91121 21.9741 6.73696 22.0406 6.5625 22.0406C6.38804 22.0406 6.21379 21.9741 6.08088 21.8411L6.08082 21.841C5.81472 21.575 5.81472 21.1437 6.08082 20.8777L6.08084 20.8777L8.94629 18.0121L9.017 17.9414L8.94629 17.8707L6.08084 15.0051L6.08082 15.0051C5.81472 14.7391 5.81472 14.3078 6.08082 14.0418L6.08086 14.0418C6.34683 13.7757 6.77817 13.7757 7.04414 14.0418L7.04416 14.0418L9.90976 16.9072L9.98047 16.9779L10.0512 16.9072L12.9168 14.0418L12.9168 14.0418C13.1828 13.7757 13.6141 13.7757 13.8801 14.0418L13.8801 14.0418C14.1462 14.3078 14.1462 14.7391 13.8801 15.0051ZM15.3522 25.5378L15.3522 25.5378C15.5472 25.8595 15.4443 26.2783 15.1225 26.4733L15.1743 26.5588L15.1224 26.4733C13.5818 27.4066 11.8104 27.9 10 27.9C7.35547 27.9 4.86961 26.8703 2.99964 25.0004C1.12966 23.1304 0.1 20.6445 0.1 18C0.1 15.3555 1.12966 12.8696 2.99964 10.9996C4.86961 9.12966 7.35547 8.1 10 8.1C12.6445 8.1 15.1304 9.12966 17.0004 10.9996C18.8703 12.8696 19.9 15.3555 19.9 18C19.9 19.9539 19.3201 21.8543 18.2227 23.4959C18.0135 23.8087 17.5904 23.8926 17.2777 23.6836C16.9649 23.4744 16.8808 23.0513 17.09 22.7387L17.09 22.7386C18.0368 21.3223 18.5375 19.6837 18.5375 18C18.5375 13.2924 14.7076 9.4625 10 9.4625C5.29237 9.4625 1.4625 13.2924 1.4625 18C1.4625 22.7076 5.29237 26.5375 10 26.5375C11.5613 26.5375 13.0886 26.1123 14.4166 25.308L14.3648 25.2224L14.4166 25.308C14.7383 25.1131 15.1573 25.2159 15.3522 25.5378Z" fill="white" stroke="#48519D" strokeWidth="0.2"/>
<ellipse cx="9.5" cy="18" rx="6.5" ry="6" fill="#900000"/>
<path d="M7.81775 23.05H7.81766C7.49171 23.0494 7.18044 22.9127 6.9569 22.6722C6.73253 22.4325 6.60516 22.0999 6.60516 21.7471V16.0146C6.17393 15.879 5.8992 15.4473 5.95787 14.9903L5.95787 14.9903C6.01831 14.5204 6.4129 14.1679 6.88124 14.1678H6.88125H8.0123V13.9252V13.9251H8.0623C8.06095 13.6789 8.15683 13.4425 8.32848 13.2686L7.81775 23.05ZM7.81775 23.05H12.1823H12.1823M7.81775 23.05H12.1823M12.1823 23.05C12.5083 23.0494 12.8195 22.9128 13.043 22.6724L12.1823 23.05ZM8.97582 12.95V13L11.6715 13.2686C11.4999 13.0948 11.2667 12.998 11.0242 13V12.95H11.024H8.97603H8.97582ZM11.9877 13.9251H11.9377L13.0431 22.6722C13.2675 22.4325 13.3948 22.0998 13.3948 21.7471V16.0146C13.8261 15.879 14.1008 15.4473 14.0421 14.9903L14.0421 14.9903C13.9817 14.5204 13.5871 14.1679 13.1188 14.1678H13.1188H11.9877V13.9252V13.9251ZM8.57366 13.9251H8.57366L8.57365 13.9245C8.57229 13.8158 8.61437 13.7114 8.69012 13.6349L8.69013 13.6349C8.76574 13.5584 8.86848 13.5165 8.97495 13.5184L8.97495 13.5184H8.97582H11.0242V13.5184L11.0251 13.5184C11.1315 13.5165 11.2343 13.5584 11.3099 13.6349L11.3099 13.6349C11.3856 13.7113 11.4277 13.8158 11.4263 13.9245L11.4263 13.9245V13.9251V14.1678H8.57366V13.9251ZM8.65459 13.5997C8.73974 13.5136 8.85562 13.4663 8.97582 13.4684L8.65459 13.5997ZM12.1823 22.4816H7.81775C7.45611 22.4816 7.16652 22.1655 7.16652 21.7471V16.0477H12.8335V21.7471C12.8335 22.1655 12.5439 22.4816 12.1823 22.4816ZM6.88125 14.7362H13.1188C13.3198 14.7362 13.484 14.9018 13.484 15.1078C13.484 15.3137 13.3198 15.4793 13.1188 15.4793H6.88125C6.68024 15.4793 6.51603 15.3137 6.51603 15.1078C6.51603 14.9018 6.68024 14.7362 6.88125 14.7362Z" fill="white" stroke="white" strokeWidth="0.1"/>
</svg>
