<svg width="34" height="27" viewBox="0 0 34 27" fill="none" xmlns="http://www.w3.org/2000/svg">
<path d="M29.7637 4.23535H1V25.808H29.7637V4.23535Z" stroke="#48519D" strokeWidth="1.5" strokeMiterlimit="10" strokeLinecap="round" strokeLinejoin="round"/>
<path d="M27.0676 6.93213H3.69653V23.1126H27.0676V6.93213Z" stroke="#48519D" strokeWidth="1.5" strokeMiterlimit="10" strokeLinecap="round" strokeLinejoin="round"/>
<path d="M27.068 23.1114L19.877 10.5273L14.9324 19.1789L10.888 14.1237L3.69653 23.1123L12.6864 23.1114L12.6855 23.1123L27.068 23.1114Z" stroke="#48519D" strokeWidth="1.5" strokeMiterlimit="10" strokeLinecap="round" strokeLinejoin="round"/>
<path d="M8.87426 16.6411L10.8881 14.1238L12.3409 15.9392C13.1012 15.2809 13.5842 14.3094 13.5842 13.2239C13.5842 11.2391 11.9744 9.62842 9.98913 9.62842C8.00343 9.62842 6.39404 11.2387 6.39404 13.2239C6.39447 14.8205 7.43511 16.1705 8.87426 16.6411Z" stroke="#48519D" strokeWidth="1.5" strokeMiterlimit="10" strokeLinecap="round" strokeLinejoin="round"/>
<path d="M4.23486 1V4.23541H29.7636V22.5718H32.9999V1H4.23486Z" stroke="#48519D" strokeWidth="1.5" strokeMiterlimit="10" strokeLinecap="round" strokeLinejoin="round"/>
</svg>
