<svg width="21" height="21" viewBox="0 0 21 21" fill="none" xmlns="http://www.w3.org/2000/svg">
<path d="M14.7864 7.01367C15.1262 7.01367 15.4016 6.73821 15.4016 6.39844V1.8457C15.4016 0.827982 14.5736 0 13.5559 0H3.71216C2.69444 0 1.86646 0.827982 1.86646 1.8457V19.1543C1.86646 20.172 2.69444 21 3.71216 21H13.5559C14.5736 21 15.4016 20.172 15.4016 19.1543V14.6016C15.4016 14.2618 15.1262 13.9863 14.7864 13.9863C14.4466 13.9863 14.1711 14.2618 14.1711 14.6016V19.1543C14.1711 19.4935 13.8952 19.7695 13.5559 19.7695H3.71216C3.37292 19.7695 3.09692 19.4935 3.09692 19.1543V1.8457C3.09692 1.50646 3.37292 1.23047 3.71216 1.23047H13.5559C13.8952 1.23047 14.1711 1.50646 14.1711 1.8457V6.39844C14.1711 6.73821 14.4466 7.01367 14.7864 7.01367Z" fill="white"/>
<path d="M18.8733 9.99783L16.3541 8.22182C16.0764 8.02601 15.6926 8.0925 15.4968 8.37017C15.301 8.64789 15.3674 9.03171 15.6451 9.22752L16.5784 9.88545H7.09601C6.75623 9.88545 6.48077 10.1609 6.48077 10.5007C6.48077 10.8405 6.75623 11.1159 7.09601 11.1159H16.5784L15.6451 11.7739C15.3674 11.9697 15.301 12.3535 15.4968 12.6312C15.6927 12.9091 16.0765 12.9753 16.3541 12.7796L18.8733 11.0036C19.2234 10.7568 19.217 10.2401 18.8733 9.99783Z" fill="white"/>
</svg>
