<svg width="24" height="24" viewBox="0 0 24 24" fill="none" xmlns="http://www.w3.org/2000/svg">
<path d="M22.3937 10.0201V10.1612L22.5266 10.2085C23.2677 10.4728 23.8 11.1733 23.8 12C23.8 12.8267 23.2677 13.5272 22.5266 13.7915L22.3937 13.8388V13.9799V17.0514V17.1924L22.5266 17.2398C23.2677 17.5041 23.8 18.2046 23.8 19.0312C23.8 20.084 22.9433 20.9406 21.8906 20.9406C21.064 20.9406 20.3634 20.4083 20.0991 19.6672L20.0518 19.5344H19.9108H16.8392H16.6982L16.6509 19.6672C16.3866 20.4083 15.686 20.9406 14.8594 20.9406C14.0327 20.9406 13.3322 20.4083 13.0679 19.6672L13.0205 19.5344H12.8795H9.80798H9.66697L9.6196 19.6672C9.35532 20.4083 8.65478 20.9406 7.82812 20.9406C6.77543 20.9406 5.91875 20.084 5.91875 19.0312C5.91875 18.2046 6.45109 17.504 7.19217 17.2398L7.325 17.1924V17.0514V13.9799V13.8388L7.19218 13.7915C6.45108 13.5272 5.91875 12.8267 5.91875 12C5.91875 11.1733 6.45108 10.4728 7.19218 10.2085L7.325 10.1612V10.0201V6.94861V6.8076L7.19218 6.76023C6.45108 6.49594 5.91875 5.79541 5.91875 4.96875C5.91875 3.91605 6.77543 3.05938 7.82812 3.05938C8.65478 3.05938 9.35532 3.59171 9.6196 4.3328L9.66697 4.46563H9.80798H12.8795H13.0205L13.0679 4.3328C13.3322 3.59171 14.0327 3.05938 14.8594 3.05938C15.686 3.05938 16.3866 3.59171 16.6509 4.3328L16.6982 4.46563H16.8392H19.9108H20.0518L20.0991 4.3328C20.3634 3.59171 21.064 3.05938 21.8906 3.05938C22.9433 3.05938 23.8 3.91605 23.8 4.96875C23.8 5.79541 23.2677 6.49594 22.5266 6.76023L22.3937 6.8076V6.94861V10.0201ZM21.2547 10.2085L21.3875 10.1612V10.0201V6.94861V6.8076L21.2547 6.76023C20.7155 6.56796 20.2914 6.14384 20.0991 5.60469L20.0518 5.47187H19.9108H16.8392H16.6982L16.6509 5.6047C16.3866 6.34579 15.686 6.87813 14.8594 6.87813C14.0327 6.87813 13.3322 6.34579 13.0679 5.6047L13.0205 5.47187H12.8795H9.80798H9.66697L9.61961 5.60469C9.42733 6.14384 9.00322 6.56796 8.46407 6.76023L8.33125 6.8076V6.94861V10.0201V10.1612L8.46407 10.2085C9.20517 10.4728 9.7375 11.1733 9.7375 12C9.7375 12.8267 9.20516 13.5272 8.46408 13.7915L8.33125 13.8388V13.9799V17.0514V17.1924L8.46407 17.2398C9.00322 17.432 9.42733 17.8562 9.61961 18.3953L9.66697 18.5281H9.80798H12.8795H13.0205L13.0679 18.3953C13.3322 17.6542 14.0327 17.1219 14.8594 17.1219C15.686 17.1219 16.3866 17.6542 16.6509 18.3953L16.6982 18.5281H16.8392H19.9108H20.0518L20.0991 18.3953C20.2914 17.8562 20.7155 17.432 21.2547 17.2398L21.3875 17.1924V17.0514V13.9799V13.8388L21.2547 13.7915C20.5136 13.5272 19.9812 12.8267 19.9812 12C19.9812 11.1733 20.5136 10.4728 21.2547 10.2085Z" fill="#48519D" stroke="white" strokeWidth="0.4"/>
<path d="M3.60938 4.26562H0.703125C0.314484 4.26562 0 4.58011 0 4.96875C0 5.35739 0.314484 5.67188 0.703125 5.67188H3.60938C3.99802 5.67188 4.3125 5.35739 4.3125 4.96875C4.3125 4.58011 3.99802 4.26562 3.60938 4.26562Z" fill="#48519D"/>
<path d="M3.60938 18.3281H0.703125C0.314484 18.3281 0 18.6426 0 19.0312C0 19.4199 0.314484 19.7344 0.703125 19.7344H3.60938C3.99802 19.7344 4.3125 19.4199 4.3125 19.0312C4.3125 18.6426 3.99802 18.3281 3.60938 18.3281Z" fill="#48519D"/>
<path d="M3.60938 9.89062H0.703125C0.314484 9.89062 0 10.2051 0 10.5938C0 10.9824 0.314484 11.2969 0.703125 11.2969H3.60938C3.99802 11.2969 4.3125 10.9824 4.3125 10.5938C4.3125 10.2051 3.99802 9.89062 3.60938 9.89062Z" fill="#48519D"/>
<path d="M3.60938 12.7031H0.703125C0.314484 12.7031 0 13.0176 0 13.4062C0 13.7949 0.314484 14.1094 0.703125 14.1094H3.60938C3.99802 14.1094 4.3125 13.7949 4.3125 13.4062C4.3125 13.0176 3.99802 12.7031 3.60938 12.7031Z" fill="#48519D"/>
</svg>
