<svg width="22" height="22" viewBox="0 0 22 22" fill="none" xmlns="http://www.w3.org/2000/svg">
<g clipPath="url(#clip0)">
<path d="M20.493 18.2513H1.50666C0.92675 18.2513 0.428313 17.8557 0.29425 17.2895C0.099 16.4621 0 15.6075 0 14.7485C0 11.7101 1.27428 8.77826 3.49594 6.70442C5.74888 4.60205 8.69069 3.56461 11.7817 3.77533C17.2673 4.15483 21.7511 8.75867 21.9897 14.257C22.034 15.2841 21.9385 16.305 21.7057 17.2905C21.5717 17.856 21.0732 18.2513 20.493 18.2513ZM10.9921 4.53398C8.39266 4.53398 5.94447 5.49442 4.03184 7.27951C1.96866 9.20451 0.785469 11.9274 0.785469 14.7489C0.785469 15.5467 0.87725 16.3411 1.05875 17.109C1.10859 17.3187 1.2925 17.4659 1.50631 17.4659H20.4927C20.7068 17.4659 20.8907 17.3198 20.9402 17.1101C21.1564 16.1947 21.2451 15.2463 21.2039 14.291C20.9825 9.1863 16.8197 4.91142 11.7267 4.55976C11.4809 4.54223 11.2358 4.53398 10.9921 4.53398ZM20.229 15.1414H17.8956V14.3556H20.229V15.1414ZM4.10609 15.1414H1.77272V14.3556H4.10609V15.1414ZM11.3939 7.85392H10.6081V5.5202H11.3939V7.85392ZM16.1538 10.1512L15.5983 9.5957L17.2483 7.9457L17.8038 8.5012L16.1538 10.1512ZM5.84787 10.1512L4.19788 8.5012L4.75338 7.9457L6.40338 9.5957L5.84787 10.1512ZM11 17.0451C9.87525 17.0451 8.96019 16.13 8.96019 15.0053C8.96019 14.4017 9.23278 13.828 9.69616 13.4412L10.6198 9.77342C10.6638 9.59879 10.8209 9.47642 11.0007 9.47642C11.1808 9.47642 11.3376 9.59879 11.3816 9.77342L12.3042 13.4416C12.7676 13.8283 13.0398 14.4024 13.0398 15.0053C13.0402 16.13 12.1248 17.0451 11 17.0451ZM11.0007 11.4788L10.4249 13.764C10.4022 13.8541 10.3483 13.9331 10.2726 13.9875C9.94263 14.2243 9.74566 14.6048 9.74566 15.0053C9.74566 15.6969 10.3084 16.2593 10.9997 16.2593C11.6913 16.2593 12.254 15.6969 12.254 15.0053C12.254 14.6048 12.057 14.2246 11.727 13.9878C11.6518 13.9338 11.5978 13.8548 11.5751 13.7644L11.0007 11.4788Z" fill="white"/>
</g>
<defs>
<clipPath id="clip0">
<rect width="22" height="22" fill="white"/>
</clipPath>
</defs>
</svg>
