<svg width="77" height="61" viewBox="0 0 77 61" fill="none" xmlns="http://www.w3.org/2000/svg">
<path d="M68.415 8.58301H1V59.144H68.415V8.58301Z" stroke="#48519D" strokeWidth="2" strokeMiterlimit="10" strokeLinecap="round" strokeLinejoin="round"/>
<path d="M62.0961 14.9028H7.32007V52.8258H62.0961V14.9028Z" stroke="#48519D" strokeWidth="2" strokeMiterlimit="10" strokeLinecap="round" strokeLinejoin="round"/>
<path d="M62.0971 52.8241L45.2431 23.3301L33.6541 43.6071L24.1751 31.7591L7.32007 52.8261L28.3901 52.8241L28.3881 52.8261L62.0971 52.8241Z" stroke="#48519D" strokeWidth="2" strokeMiterlimit="10" strokeLinecap="round" strokeLinejoin="round"/>
<path d="M19.4551 37.6591L24.1751 31.7591L27.5801 36.0141C29.3621 34.4711 30.4941 32.1941 30.4941 29.6501C30.4941 24.9981 26.7211 21.2231 22.0681 21.2231C17.4141 21.2231 13.6421 24.9971 13.6421 29.6501C13.6431 33.3921 16.0821 36.5561 19.4551 37.6591Z" stroke="#48519D" strokeWidth="2" strokeMiterlimit="10" strokeLinecap="round" strokeLinejoin="round"/>
<path d="M8.58203 1V8.583H68.415V51.559H76V1H8.58203Z" stroke="#48519D" strokeWidth="2" strokeMiterlimit="10" strokeLinecap="round" strokeLinejoin="round"/>
</svg>
