<svg width="70" height="70" viewBox="0 0 70 70" fill="none" xmlns="http://www.w3.org/2000/svg">
<path d="M30.8425 24.1129C30.8425 26.5756 28.8461 28.572 26.3834 28.572C23.9207 28.572 21.9242 26.5756 21.9242 24.1129C21.9242 21.6501 23.9207 19.6537 26.3834 19.6537C28.8461 19.6537 30.8425 21.6501 30.8425 24.1129Z" fill="#48519D" stroke="#F6F7FF" strokeWidth="0.7"/>
<path d="M57.2263 37.8723V38.1805L57.532 38.2195C60.5935 38.6103 63.3964 39.9777 65.615 42.0644C68.0883 44.5395 69.65 47.9902 69.65 51.8322C69.65 55.6762 68.0867 59.1284 65.6113 61.6038C63.1359 64.0793 59.6837 65.6426 55.8397 65.6426C52.5233 65.6426 49.5269 64.4076 47.1097 62.4478L47.0134 62.3696H46.8893H9.41794C6.90729 62.3696 4.65942 61.4057 2.98849 59.7361C1.37677 58.0587 0.35 55.8068 0.35 53.3017V47.0899V44.2177V13.4258C0.35 10.9151 1.31391 8.66722 2.98361 6.99628C4.66094 5.38458 6.91284 4.35781 9.41794 4.35781H48.1584C50.669 4.35781 52.9169 5.3217 54.5878 6.99136C56.1995 8.6687 57.2263 10.9206 57.2263 13.4258V37.8723ZM53.7888 34.5797L54.3863 35.1772V34.3322V13.4925C54.3863 11.7906 53.677 10.2338 52.5471 9.10384C51.4172 7.97392 49.8603 7.26468 48.1584 7.26468H9.41794C7.71799 7.26468 6.16281 7.97225 5.03321 9.09986C3.89651 10.1677 3.19008 11.7278 3.19008 13.4258V39.9429V40.7955L3.78912 40.1889L14.341 29.5034C14.3412 29.5032 14.3415 29.5029 14.3417 29.5027C14.9312 28.914 15.844 28.9638 16.3837 29.5029C16.3839 29.5031 16.384 29.5032 16.3842 29.5034L26.4693 39.6552L26.7173 39.9049L26.9656 39.6555L41.8601 24.6942C41.8601 24.6942 41.8602 24.6941 41.8602 24.6941C42.4499 24.1046 43.3635 24.1545 43.9033 24.6942L53.7888 34.5797ZM9.00114 59.5195V59.6632H9.35114H43.6164H44.2965L43.9012 59.1097C43.6521 58.7609 43.4438 58.3345 43.2286 57.8938C43.1855 57.8056 43.1421 57.7167 43.0981 57.6278V57.5759L43.0731 57.5133C42.8136 56.8647 42.6179 56.214 42.4177 55.5466C42.3836 55.4108 42.3495 55.2917 42.3171 55.178L42.3165 55.176C42.2837 55.0612 42.2525 54.9518 42.2213 54.8279C42.0242 53.8409 41.8958 52.9331 41.8958 51.9658C41.8958 48.1218 43.4591 44.6697 45.9345 42.1942L45.9427 42.186L45.9504 42.1772C46.393 41.6714 46.8984 41.2279 47.4676 40.8464C47.5437 40.8068 47.6023 40.7677 47.6479 40.7373L47.6512 40.7351C47.7014 40.7017 47.7353 40.6794 47.7806 40.6567L47.8001 40.647L47.8182 40.6349C47.9107 40.5732 47.9878 40.5269 48.0713 40.4768L48.0731 40.4757C48.1542 40.4271 48.2415 40.3747 48.3455 40.3056L48.3463 40.3051L48.3483 40.304L48.3502 40.3028L48.3522 40.3016L48.3541 40.3005L48.3561 40.2993L48.358 40.2981L48.36 40.2969L48.3619 40.2958L48.3639 40.2946L48.3659 40.2934L48.3678 40.2922L48.3698 40.2911L48.3717 40.2899L48.3737 40.2887L48.3756 40.2875L48.3776 40.2864L48.3796 40.2852L48.3815 40.284L48.3835 40.2828L48.3854 40.2817L48.3874 40.2805L48.3893 40.2793L48.3913 40.2781L48.3933 40.277L48.3952 40.2758L48.3972 40.2746L48.3991 40.2734L48.4011 40.2723L48.403 40.2711L48.405 40.2699L48.407 40.2688L48.4089 40.2676L48.4109 40.2664L48.4128 40.2652L48.4148 40.2641L48.4167 40.2629L48.4187 40.2617L48.4207 40.2605L48.4226 40.2594L48.4246 40.2582L48.4265 40.257L48.4285 40.2558L48.4304 40.2547L48.4324 40.2535L48.4344 40.2523L48.4363 40.2511L48.4383 40.25L48.4402 40.2488L48.4422 40.2476L48.4441 40.2464L48.4461 40.2453L48.4481 40.2441L48.45 40.2429L48.452 40.2417L48.4539 40.2406L48.4559 40.2394L48.4578 40.2382L48.4598 40.237L48.4618 40.2359L48.4637 40.2347L48.4657 40.2335L48.4676 40.2324L48.4696 40.2312L48.4715 40.23L48.4735 40.2288L48.4754 40.2277L48.4774 40.2265L48.4794 40.2253L48.4813 40.2241L48.4833 40.223L48.4852 40.2218L48.4872 40.2206L48.4891 40.2194L48.4911 40.2183L48.4931 40.2171L48.495 40.2159L48.497 40.2147L48.4989 40.2136L48.5009 40.2124L48.5028 40.2112L48.5048 40.21L48.5068 40.2089L48.5087 40.2077L48.5107 40.2065L48.5126 40.2053L48.5146 40.2042L48.5165 40.203L48.5185 40.2018L48.5205 40.2007L48.5224 40.1995L48.5244 40.1983L48.5263 40.1971L48.5283 40.196L48.5302 40.1948L48.5322 40.1936L48.5342 40.1924L48.5361 40.1913L48.5381 40.1901L48.54 40.1889L48.542 40.1877L48.5439 40.1866L48.5459 40.1854L48.5479 40.1842L48.5498 40.183L48.5518 40.1819L48.5537 40.1807L48.5557 40.1795L48.5576 40.1783L48.5596 40.1772L48.5616 40.176L48.5635 40.1748L48.5655 40.1736L48.5674 40.1725L48.5694 40.1713L48.5713 40.1701L48.5733 40.169L48.5752 40.1678L48.5772 40.1666L48.5792 40.1654L48.5811 40.1643L48.5831 40.1631L48.585 40.1619L48.587 40.1607L48.5889 40.1596L48.5909 40.1584L48.5929 40.1572L48.5948 40.156L48.5968 40.1549L48.5987 40.1537L48.6007 40.1525L48.6026 40.1513L48.6046 40.1502L48.6066 40.149L48.6085 40.1478L48.6105 40.1466L48.6124 40.1455L48.6144 40.1443L48.6163 40.1431L48.6183 40.1419L48.6203 40.1408L48.6222 40.1396L48.6242 40.1384L48.6261 40.1373L48.6281 40.1361L48.63 40.1349L48.632 40.1337L48.634 40.1326L48.6359 40.1314L48.6379 40.1302L48.6398 40.129L48.6418 40.1279L48.6437 40.1267L48.6457 40.1255L48.6477 40.1243L48.6496 40.1232L48.6516 40.122L48.6535 40.1208L48.6555 40.1196L48.6574 40.1185L48.6594 40.1173L48.6613 40.1161L48.6633 40.1149L48.6653 40.1138L48.6672 40.1126L48.6692 40.1114L48.6711 40.1102L48.6731 40.1091L48.675 40.1079L48.677 40.1067L48.679 40.1055L48.6809 40.1044L48.6829 40.1032L48.6848 40.102L48.6868 40.1009L48.6887 40.0997L48.6907 40.0985L48.6927 40.0973L48.6946 40.0962L48.6966 40.095L48.6985 40.0938L48.7005 40.0926L48.7024 40.0915L48.7044 40.0903L48.7064 40.0891L48.7083 40.0879L48.7103 40.0868L48.7122 40.0856L48.7142 40.0844L48.7161 40.0832L48.7181 40.0821L48.7201 40.0809L48.722 40.0797L48.724 40.0785L48.7259 40.0774L48.7279 40.0762L48.7298 40.075L48.7318 40.0738L48.7338 40.0727L48.7357 40.0715L48.7377 40.0703L48.7396 40.0692L48.7416 40.068L48.7435 40.0668L48.7455 40.0656L48.7474 40.0645L48.7494 40.0633L48.7514 40.0621L48.7533 40.0609L48.7553 40.0598L48.7572 40.0586L48.7592 40.0574L48.7611 40.0562L48.7631 40.0551L48.7651 40.0539L48.767 40.0527L48.769 40.0515L48.7709 40.0504L48.7729 40.0492L48.7748 40.048L48.7768 40.0468L48.7788 40.0457L48.7807 40.0445L48.7827 40.0433L48.7846 40.0421L48.7866 40.041L48.7885 40.0398L48.7905 40.0386L48.7925 40.0375L48.7944 40.0363L48.7964 40.0351L48.7983 40.0339L48.8003 40.0328L48.8022 40.0316L48.8042 40.0304L48.8062 40.0292L48.8081 40.0281L48.8101 40.0269L48.812 40.0257L48.814 40.0245L48.8159 40.0234L48.8179 40.0222L48.8199 40.021L48.8218 40.0198L48.8238 40.0187L48.8257 40.0175L48.8277 40.0163L48.8296 40.0151L48.8316 40.014L48.8335 40.0128L48.8355 40.0116L48.8375 40.0104L48.8394 40.0093L48.8414 40.0081L48.8433 40.0069L48.8453 40.0057L48.8472 40.0046L48.8492 40.0034L48.8512 40.0022L48.8531 40.0011L48.8551 39.9999L48.857 39.9987L48.859 39.9975L48.8609 39.9964L48.8629 39.9952L48.8649 39.994L48.8668 39.9928L48.8688 39.9917L48.8707 39.9905L48.8727 39.9893L48.8746 39.9881L48.8766 39.987L48.8786 39.9858L48.8805 39.9846L48.8825 39.9834L48.8844 39.9823L48.8864 39.9811L48.8883 39.9799L48.8903 39.9787L48.8923 39.9776L48.8942 39.9764L48.8962 39.9752L48.8981 39.974L48.9001 39.9729L48.902 39.9717L48.904 39.9705L48.906 39.9694L48.9079 39.9682L48.9099 39.967L48.9118 39.9658L48.9138 39.9647L48.9157 39.9635L48.9177 39.9623L48.9197 39.9611L48.9216 39.96L48.9236 39.9588L48.9255 39.9576L48.9275 39.9564L48.9294 39.9553L48.9314 39.9541L48.9333 39.9529L48.9353 39.9517L48.9373 39.9506L48.9392 39.9494L48.9412 39.9482L48.9431 39.947L48.9451 39.9459L48.947 39.9447L48.949 39.9435L48.951 39.9423L48.9529 39.9412L48.9549 39.94L48.9568 39.9388L48.9588 39.9377L48.9607 39.9365L48.9627 39.9353L48.9647 39.9341L48.9666 39.933L48.9686 39.9318L48.9705 39.9306L48.9725 39.9294L48.9744 39.9283L48.9764 39.9271L48.9784 39.9259L48.9803 39.9247L48.9823 39.9236L48.9842 39.9224L48.9862 39.9212L48.9881 39.92L48.9901 39.9189L48.9921 39.9177L48.994 39.9165L48.996 39.9153L48.9979 39.9142L48.9999 39.913L49.0018 39.9118L49.0038 39.9106L49.0058 39.9095L49.0077 39.9083L49.0097 39.9071L49.0116 39.9059L49.0136 39.9048L49.0155 39.9036L49.0175 39.9024L49.0195 39.9013L49.0214 39.9001L49.0234 39.8989L49.0253 39.8977L49.0273 39.8966L49.0292 39.8954L49.0312 39.8942L49.0331 39.893L49.0351 39.8919L49.0371 39.8907L49.039 39.8895L49.041 39.8883L49.0429 39.8872L49.0449 39.886L49.0468 39.8848L49.0488 39.8836L49.0508 39.8825L49.0527 39.8813L49.0547 39.8801L49.0566 39.8789L49.0586 39.8778L49.0605 39.8766L49.0625 39.8754L49.0645 39.8742L49.0664 39.8731L49.0684 39.8719L49.0703 39.8707L49.0723 39.8696L49.0742 39.8684L49.0762 39.8672L49.0782 39.866L49.0801 39.8649L49.0821 39.8637L49.084 39.8625L49.086 39.8613L49.0879 39.8602L49.0899 39.859L49.0919 39.8578L49.0938 39.8566L49.0958 39.8555L49.0977 39.8543L49.0997 39.8531L49.1016 39.8519L49.1036 39.8508L49.1056 39.8496L49.1075 39.8484L49.1095 39.8472L49.1114 39.8461L49.1134 39.8449L49.1153 39.8437L49.1173 39.8425L49.1193 39.8414L49.1212 39.8402L49.1232 39.839L49.1251 39.8379L49.1271 39.8367L49.129 39.8355L49.131 39.8343L49.1329 39.8332L49.1349 39.832L49.1369 39.8308L49.1388 39.8296L49.1408 39.8285L49.1427 39.8273L49.1447 39.8261L49.1466 39.8249L49.1486 39.8238L49.1506 39.8226L49.1525 39.8214L49.1545 39.8202L49.1564 39.8191L49.1584 39.8179L49.1603 39.8167L49.1623 39.8155L49.1643 39.8144L49.1662 39.8132L49.1682 39.812L49.1701 39.8108L49.1721 39.8097L49.174 39.8085L49.176 39.8073L49.178 39.8062L49.1799 39.805L49.1819 39.8038L49.1838 39.8026L49.1858 39.8015L49.1877 39.8003L49.1897 39.7991L49.1917 39.7979L49.1936 39.7968L49.1956 39.7956L49.1975 39.7944L49.1995 39.7932L49.2014 39.7921L49.2034 39.7909L49.2054 39.7897L49.2073 39.7885L49.2093 39.7874L49.2112 39.7862L49.2132 39.785L49.2151 39.7838L49.2171 39.7827L49.2191 39.7815L49.221 39.7803L49.223 39.7791L49.2249 39.778L49.2269 39.7768L49.2288 39.7756L49.2308 39.7744L49.2327 39.7733L49.2347 39.7721L49.2367 39.7709L49.2386 39.7698L49.2406 39.7686L49.2425 39.7674L49.2445 39.7662L49.2464 39.7651L49.2484 39.7639L49.2504 39.7627L49.2523 39.7615L49.2543 39.7604L49.2562 39.7592L49.2582 39.758L49.2601 39.7568L49.2621 39.7557L49.2641 39.7545L49.266 39.7533L49.268 39.7521L49.2699 39.751L49.2719 39.7498L49.2738 39.7486L49.2758 39.7474L49.2778 39.7463L49.2797 39.7451L49.2817 39.7439L49.2836 39.7427L49.2856 39.7416L49.2875 39.7404L49.2895 39.7392L49.2915 39.7381L49.2934 39.7369L49.2954 39.7357L49.2973 39.7345L49.2993 39.7334L49.3012 39.7322L49.3032 39.731L49.3052 39.7298L49.3071 39.7287L49.3091 39.7275L49.311 39.7263L49.313 39.7251L49.3149 39.724L49.3169 39.7228L49.3189 39.7216L49.3208 39.7204L49.3228 39.7193L49.3247 39.7181L49.3267 39.7169L49.3286 39.7157L49.3306 39.7146L49.3325 39.7134L49.3345 39.7122L49.3365 39.711L49.3384 39.7099L49.3404 39.7087L49.3475 39.7044L49.3544 39.6998C49.4321 39.648 49.513 39.6069 49.6159 39.5594C49.6429 39.5469 49.6724 39.5336 49.704 39.5193C49.7868 39.4819 49.8835 39.4383 49.9848 39.3877L50.0043 39.3779L50.0224 39.3658C50.1962 39.2499 50.3011 39.1977 50.4615 39.1434C50.6096 39.1053 50.7538 39.0512 50.8781 39.0046L50.8862 39.0016C51.0235 38.9501 51.1381 38.9075 51.249 38.8798L51.272 38.874L51.2941 38.8652C51.6041 38.7412 51.851 38.6792 52.1173 38.6126L52.1304 38.6094L52.1431 38.6051L52.4437 38.5049L52.7443 38.4047L53.2795 38.2263L52.8819 37.8261L43.13 28.0074L42.882 27.7576L42.6336 28.0071L27.7451 42.9624C27.137 43.5094 26.2193 43.4917 25.696 42.9683L15.6101 32.8825L15.3619 32.6343L15.1144 32.8832L3.29189 44.7725L3.19008 44.8749V45.0193V47.0899V53.3017C3.19008 55.0026 3.89826 56.5556 4.95459 57.6823L4.95445 57.6824L4.96244 57.6904C6.01442 58.7424 7.43647 59.4297 9.00114 59.5195ZM63.5013 59.5606L63.5013 59.5607L63.5056 59.5563C65.4319 57.5612 66.6763 54.8714 66.6763 51.899C66.6763 48.866 65.503 46.1724 63.5013 44.1706L63.5013 44.1706L63.4969 44.1663C61.5009 42.2392 58.8109 40.9956 55.7729 40.9956C52.7434 40.9956 49.9794 42.1666 48.0402 44.175C46.113 46.171 44.8695 48.861 44.8695 51.899C44.8695 52.6539 44.938 53.4119 45.0766 54.1051L45.0783 54.1133L45.0803 54.1213C45.117 54.2681 45.1706 54.429 45.2189 54.5739L45.2214 54.5813C45.2708 54.7295 45.3147 54.8619 45.3442 54.977C45.4175 55.4068 45.559 55.8277 45.696 56.1702L45.7014 56.1838L45.7079 56.1968C45.7791 56.339 45.8499 56.4629 45.9157 56.5782L45.9175 56.5813C45.9847 56.6989 46.0469 56.8078 46.1087 56.9315L46.1168 56.9476C46.3116 57.3373 46.5259 57.766 46.8164 58.1291L46.8285 58.1443L46.8422 58.158C46.9311 58.2469 47.0223 58.353 47.1245 58.4722L47.129 58.4775C47.2261 58.5907 47.3336 58.7162 47.4434 58.8259C47.5683 58.9509 47.695 59.0932 47.83 59.2451L47.8335 59.249C47.9646 59.3965 48.1039 59.5533 48.2449 59.6942L48.2448 59.6943L48.2494 59.6987C50.1822 61.5624 52.8733 62.7357 55.7729 62.7357C58.8059 62.7357 61.4996 61.5624 63.5013 59.5606Z" fill="#48519D" stroke="#F6F7FF" strokeWidth="0.7"/>
<path d="M54.3199 50.2959V49.4509L53.7224 50.0484L52.6599 51.111C52.0541 51.6562 51.1407 51.6407 50.6163 51.1229C50.0694 50.5149 50.0872 49.5973 50.6105 49.0739L54.7517 44.9327C54.9262 44.7582 55.0817 44.6613 55.2161 44.6165C55.4282 44.5458 55.5732 44.5009 55.7065 44.5009H55.7065H55.7065H55.7065H55.7065H55.7065H55.7066H55.7066H55.7066H55.7066H55.7066H55.7066H55.7066H55.7066H55.7066H55.7066H55.7066H55.7066H55.7066H55.7066H55.7066H55.7066H55.7066H55.7066H55.7066H55.7067H55.7067H55.7067H55.7067H55.7067H55.7067H55.7067H55.7067H55.7067H55.7067H55.7067H55.7067H55.7067H55.7067H55.7068H55.7068H55.7068H55.7068H55.7068H55.7068H55.7068H55.7068H55.7068H55.7068H55.7069H55.7069H55.7069H55.7069H55.7069H55.7069H55.7069H55.7069H55.707H55.707H55.707H55.707H55.707H55.707H55.707H55.7071H55.7071H55.7071H55.7071H55.7071H55.7071H55.7072H55.7072H55.7072H55.7072H55.7072H55.7072H55.7073H55.7073H55.7073H55.7073H55.7073H55.7074H55.7074H55.7074H55.7074H55.7075H55.7075H55.7075H55.7075H55.7075H55.7076H55.7076H55.7076H55.7076H55.7077H55.7077H55.7077H55.7078H55.7078H55.7078H55.7078H55.7079H55.7079H55.7079H55.708H55.708H55.708H55.708H55.7081H55.7081H55.7081H55.7082H55.7082H55.7082H55.7083H55.7083H55.7083H55.7084H55.7084H55.7085H55.7085H55.7085H55.7086H55.7086H55.7086H55.7087H55.7087H55.7088H55.7088H55.7088H55.7089H55.7089H55.709H55.709H55.7091H55.7091H55.7091H55.7092H55.7092H55.7093H55.7093H55.7094H55.7094H55.7095H55.7095H55.7096H55.7096H55.7097H55.7097H55.7098H55.7098H55.7099H55.7099H55.71H55.71H55.7101H55.7102H55.7102H55.7103H55.7103H55.7104H55.7104H55.7105H55.7106H55.7106H55.7107H55.7108H55.7108H55.7109H55.7109H55.711H55.7111H55.7111H55.7112H55.7113H55.7113H55.7114H55.7115H55.7115H55.7116H55.7117H55.7118H55.7118H55.7119H55.712H55.712H55.7121H55.7122H55.7123H55.7123H55.7124H55.7125H55.7126H55.7127H55.7127H55.7128H55.7129H55.713H55.7131H55.7132H55.7132H55.7133H55.7134H55.7135H55.7136H55.7137H55.7138H55.7138H55.7139H55.714H55.7141H55.7142H55.7143H55.7144H55.7145H55.7146H55.7147H55.7148H55.7149H55.715H55.7151H55.7152H55.7153H55.7154H55.7155H55.7156H55.7157H55.7158H55.7159H55.716H55.7161H55.7162H55.7163H55.7164H55.7165H55.7167H55.7168H55.7169H55.717H55.7171H55.7172H55.7173H55.7175H55.7176H55.7177H55.7178H55.7179H55.718H55.7182H55.7183H55.7184H55.7185H55.7187H55.7188H55.7189H55.719H55.7192H55.7193H55.7194H55.7196H55.7197H55.7198H55.72H55.7201H55.7202H55.7204H55.7205H55.7206H55.7208H55.7209H55.7211H55.7212H55.7214H55.7215H55.7216H55.7218H55.7219H55.7221H55.7222H55.7224H55.7225H55.7227H55.7228H55.723H55.7231H55.7233H55.7235H55.7236H55.7238H55.7239H55.7241H55.7242H55.7244H55.7246H55.7247H55.7249H55.7251H55.7252H55.7254H55.7256H55.7257H55.7259H55.7261H55.7263H55.7264H55.7266H55.7268H55.727H55.7271H55.7273H55.7275H55.7277H55.7279H55.728H55.7282H55.7284H55.7286H55.7288H55.729H55.7292H55.7294H55.7296H55.7297H55.7299H55.7301H55.7303H55.7305H55.7307H55.7309H55.7311H55.7313H55.7315H55.7317H55.7319H55.7321H55.7324H55.7326H55.7328H55.733H55.7332H55.7334H55.7336H55.7338H55.734H55.7343H55.7345H55.7347H55.7349H55.7351H55.7354H55.7356H55.7358H55.736H55.7363H55.7365H55.7367H55.737H55.7372H55.7374H55.7377H55.7379H55.7381H55.7384H55.7386H55.7389H55.7391H55.7393H55.7396H55.7398H55.7401H55.7403H55.7406H55.7408H55.7411H55.7413H55.7416H55.7418H55.7421H55.7424H55.7426H55.7429H55.7431H55.7434H55.7437H55.7439H55.7442H55.7445H55.7447H55.745H55.7453H55.7455H55.7458H55.7461H55.7464H55.7466H55.7469H55.7472H55.7475H55.7478H55.7481H55.7483H55.7486H55.7489H55.7492H55.7495H55.7498H55.7501H55.7504H55.7507H55.751H55.7513H55.7516H55.7519H55.7522H55.7525H55.7528H55.7531H55.7534H55.7537H55.754H55.7543H55.7546H55.755H55.7553H55.7556H55.7559H55.7562H55.7566H55.7569H55.7572H55.7575H55.7579H55.7582H55.7585H55.7589H55.7592H55.7595H55.7599H55.7602H55.7605H55.7609H55.7612H55.7616H55.7619H55.7623H55.7626H55.7629H55.7633H55.7637H55.764H55.7644H55.7647H55.7651H55.7654H55.7658H55.7662H55.7665H55.7669H55.7673H55.7676H55.768H55.7684H55.7687H55.7691H55.7695H55.7699H55.7702H55.7706H55.771H55.7714H55.7718H55.7722H55.7725H55.7729H55.7733H55.7733H55.7733H55.7733H55.7733H55.7733H55.7733H55.7733H55.7734H55.7734H55.7734H55.7734H55.7734H55.7734H55.7734H55.7734H55.7734H55.7734H55.7734H55.7734H55.7734H55.7734H55.7734H55.7734H55.7734H55.7734H55.7734H55.7735H55.7735H55.7735H55.7735H55.7735H55.7735H55.7735H55.7735H55.7735H55.7735H55.7735H55.7735H55.7735H55.7736H55.7736H55.7736H55.7736H55.7736H55.7736H55.7736H55.7736H55.7736H55.7736H55.7737H55.7737H55.7737H55.7737H55.7737H55.7737H55.7737H55.7737H55.7738H55.7738H55.7738H55.7738H55.7738H55.7738H55.7738H55.7739H55.7739H55.7739H55.7739H55.7739H55.7739H55.774H55.774H55.774H55.774H55.774H55.7741H55.7741H55.7741H55.7741H55.7741H55.7742H55.7742H55.7742H55.7742H55.7742H55.7743H55.7743H55.7743H55.7743H55.7744H55.7744H55.7744H55.7744H55.7745H55.7745H55.7745H55.7745H55.7746H55.7746H55.7746H55.7747H55.7747H55.7747H55.7747H55.7748H55.7748H55.7748H55.7749H55.7749H55.7749H55.775H55.775H55.775H55.7751H55.7751H55.7751H55.7752H55.7752H55.7752H55.7753H55.7753H55.7754H55.7754H55.7754H55.7755H55.7755H55.7756H55.7756H55.7756H55.7757H55.7757H55.7758H55.7758H55.7759H55.7759H55.7759H55.776H55.776H55.7761H55.7761H55.7762H55.7762H55.7763H55.7763H55.7764H55.7764H55.7765H55.7765H55.7766H55.7766H55.7767H55.7767H55.7768H55.7768H55.7769H55.777H55.777H55.7771H55.7771H55.7772H55.7772H55.7773H55.7774H55.7774H55.7775H55.7775H55.7776H55.7777H55.7777H55.7778H55.7779H55.7779H55.778H55.7781H55.7781H55.7782H55.7783H55.7783H55.7784H55.7785H55.7785H55.7786H55.7787H55.7788H55.7788H55.7789H55.779H55.7791H55.7791H55.7792H55.7793H55.7794H55.7795H55.7795H55.7796H55.7797H55.7798H55.7799H55.7799H55.78H55.7801H55.7802H55.7803H55.7804H55.7805H55.7805H55.7806H55.7807H55.7808H55.7809H55.781H55.7811H55.7812H55.7813H55.7814H55.7815H55.7816H55.7817H55.7818H55.7819H55.782H55.7821H55.7822H55.7823H55.7824H55.7825H55.7826H55.7827H55.7828H55.7829H55.783H55.7831H55.7832H55.7833H55.7834H55.7836H55.7837H55.7838H55.7839H55.784H55.7841H55.7842H55.7844H55.7845H55.7846H55.7847H55.7848H55.785H55.7851H55.7852H55.7853H55.7855H55.7856H55.7857H55.7858H55.786H55.7861H55.7862H55.7864H55.7865H55.7866H55.7868H55.7869H55.787H55.7872H55.7873H55.7874H55.7876H55.7877H55.7879H55.788H55.7881H55.7883H55.7884H55.7886H55.7887H55.7889H55.789H55.7892H55.7893H55.7895H55.7896H55.7898H55.7899H55.7901H55.7902H55.7904H55.7906H55.7907H55.7909H55.791H55.7912H55.7914H55.7915H55.7917H55.7919H55.792H55.7922H55.7924H55.7925H55.7927H55.7929H55.7931H55.7932H55.7934H55.7936H55.7938H55.7939H55.7941H55.7943H55.7945H55.7947H55.7948H55.795H55.7952H55.7954H55.7956H55.7958H55.796H55.7962H55.7963H55.7965H55.7967H55.7969H55.7971H55.7973H55.7975H55.7977H55.7979H55.7981H55.7983H55.7985H55.7987H55.7989H55.7991H55.7994H55.7996H55.7998H55.8H55.8002H55.8004H55.8006H55.8008H55.8011H55.8013H55.8015H55.8017H55.8019H55.8022H55.8024H55.8026H55.8028H55.8031H55.8033H55.8035H55.8038H55.804H55.8042H55.8045H55.8047H55.8049H55.8052H55.8054H55.8056H55.8059H55.8061H55.8064H55.8066H55.8069H55.8071H55.8074H55.8076H55.8079H55.8081H55.8084H55.8086H55.8089H55.8091H55.8094H55.8097H55.8099H55.8102H55.8105H55.8107H55.811H55.8113H55.8115H55.8118H55.8121H55.8123H55.8126H55.8129H55.8132H55.8134H55.8137H55.814H55.8143H55.8146H55.8148H55.8151H55.8154H55.8157H55.816H55.8163H55.8166H55.8169H55.8172H55.8175H55.8178H55.8181H55.8184H55.8187H55.819H55.8193H55.8196H55.8199H55.8202H55.8205H55.8208H55.8211H55.8214H55.8218H55.8221H55.8224H55.8227H55.823H55.8234H55.8237H55.824H55.8243H55.8247H55.825H55.8253H55.8256H55.826H55.8263H55.8267H55.827H55.8273H55.8277H55.828H55.8284H55.8287H55.829H55.8294H55.8297H55.8301H55.8304H55.8308H55.8312H55.8315H55.8319H55.8322H55.8326H55.8329H55.8333H55.8337H55.834H55.8344H55.8348H55.8352H55.8355H55.8359H55.8363H55.8367H55.837H55.8374H55.8378H55.8382H55.8386H55.8389H55.8393H55.8397H55.8401C55.9684 44.5009 56.1074 44.5424 56.3066 44.6085C56.545 44.7295 56.7016 44.8394 56.7949 44.9327L60.93 49.0678C61.4752 49.6735 61.4597 50.5869 60.9419 51.1113C60.3339 51.6582 59.4163 51.6405 58.8929 51.1171L57.8242 50.0484L57.2268 49.4509V50.2959V57.6432C57.2268 58.4519 56.5819 59.0967 55.7733 59.0967C54.9647 59.0967 54.3199 58.4519 54.3199 57.6432V50.2959Z" fill="#48519D" stroke="#F6F7FF" strokeWidth="0.7"/>
</svg>
