<svg width="21" height="21" viewBox="0 0 21 21" fill="none" xmlns="http://www.w3.org/2000/svg">
<g clipPath="url(#clip0)">
<path d="M12.0402 20.9992H8.95945C8.68842 20.9992 8.46891 20.7796 8.46891 20.5086V18.4306C7.73752 18.24 7.02516 17.9381 6.34233 17.5309L5.08364 18.7892C4.89202 18.9809 4.58161 18.9809 4.38998 18.7892L2.21156 16.6108C2.11969 16.5189 2.06784 16.3943 2.06784 16.264C2.06784 16.1337 2.11969 16.009 2.21156 15.9172L3.46664 14.6621C3.05812 13.9806 2.75592 13.2666 2.56528 12.5325H0.490547C0.219516 12.5329 0 12.3134 0 12.0423V8.96189C0 8.69086 0.219516 8.47135 0.490547 8.47135H2.56561C2.75658 7.73766 3.05845 7.02366 3.4673 6.34182L2.21189 5.08641C2.02059 4.89478 2.02059 4.58438 2.21222 4.39275L4.39064 2.21433C4.48252 2.12246 4.60753 2.07061 4.73747 2.07061C4.86773 2.07061 4.99242 2.12246 5.08463 2.21433L6.34233 3.47269C7.02417 3.06352 7.73686 2.7623 8.46956 2.57264V0.492988C8.46956 0.221957 8.68908 0.00244141 8.96011 0.00244141H12.0409C12.3119 0.00244141 12.5314 0.221957 12.5314 0.492988V2.57232C13.2638 2.76197 13.9765 3.06319 14.6583 3.47203L15.9164 2.214C16.1004 2.02993 16.4259 2.02993 16.61 2.214L18.7884 4.39243C18.9801 4.58405 18.9801 4.89446 18.7884 5.08608L17.5334 6.34149C17.9422 7.02366 18.2444 7.73733 18.4354 8.47102H20.5104C20.7815 8.47102 21.001 8.69053 21.001 8.96157V12.042C21.001 12.313 20.7815 12.5325 20.5104 12.5325H18.4354C18.2444 13.2669 17.9422 13.9806 17.5337 14.6621L18.7884 15.9172C18.9801 16.1088 18.9801 16.4192 18.7884 16.6108L16.61 18.7892C16.4184 18.9809 16.108 18.9809 15.9164 18.7892L14.6577 17.5309C13.9752 17.9384 13.2628 18.24 12.5318 18.4306V20.5086C12.5308 20.78 12.3112 20.9992 12.0402 20.9992ZM9.45 20.0184H11.55V18.0414C11.55 17.8088 11.7137 17.6073 11.9421 17.5611C12.8116 17.3829 13.6582 17.0256 14.4575 16.4986C14.6524 16.3696 14.9097 16.3962 15.0744 16.5613L16.2622 17.7491L17.747 16.2643L16.5618 15.0791C16.3967 14.9144 16.3708 14.6562 16.4998 14.4616C17.0277 13.6646 17.3857 12.817 17.5642 11.9439C17.6108 11.7155 17.8119 11.5515 18.0449 11.5515H20.0189V9.45211H18.0449C17.8119 9.45211 17.6108 9.28838 17.5642 9.05968C17.386 8.18686 17.028 7.33997 16.4998 6.54197C16.3711 6.34739 16.3971 6.08916 16.5621 5.92444L17.7473 4.73892L16.2625 3.25416L15.0744 4.44263C14.91 4.60735 14.6511 4.63425 14.4565 4.50432C13.6595 3.97603 12.8139 3.61903 11.9434 3.44316C11.7144 3.39722 11.55 3.19575 11.55 2.96279V0.983207H9.45V2.96246C9.45 3.19575 9.28561 3.39689 9.05658 3.44349C8.18606 3.61936 7.34016 3.97603 6.54281 4.50497C6.34823 4.63393 6.09 4.60735 5.92528 4.44263L4.73714 3.25416L3.25237 4.73892L4.43789 5.92444C4.60294 6.08916 4.62886 6.34739 4.50023 6.54197C3.97228 7.33964 3.61397 8.18686 3.4358 9.05968C3.3892 9.28805 3.18806 9.45211 2.95509 9.45211H0.981094V11.5515H2.95509C3.18806 11.5515 3.3892 11.7152 3.4358 11.9439C3.6143 12.8177 3.97228 13.6646 4.49991 14.4616C4.62886 14.6562 4.60294 14.9144 4.43789 15.0791L3.2527 16.2643L4.73747 17.7491L5.92561 16.5613C6.09066 16.3965 6.34823 16.3703 6.54216 16.4986C7.34212 17.0249 8.18869 17.3829 9.05855 17.5611C9.28692 17.6077 9.45066 17.8088 9.45066 18.0414V20.0184H9.45ZM10.5 15.6104C10.2175 15.6104 9.92972 15.5815 9.5947 15.5205L9.41227 15.4893C9.16519 15.4328 8.92894 15.359 8.69236 15.2662C8.57522 15.2222 8.45873 15.1763 8.34192 15.1205C8.33634 15.1175 8.29533 15.0985 8.29008 15.0955C8.27728 15.089 8.26514 15.0818 8.25333 15.0745C7.05534 14.4859 6.15103 13.4693 5.70281 12.2061C5.49609 11.6292 5.39109 11.0553 5.39109 10.5018C5.39109 9.94135 5.49314 9.38321 5.70347 8.79652C6.15037 7.53619 7.0537 6.51966 8.25037 5.92871C8.26777 5.91722 8.28614 5.90672 8.30517 5.89754C8.3242 5.88835 8.36161 5.87391 8.38163 5.86735C8.46005 5.82764 8.57752 5.77777 8.70187 5.73183C8.94502 5.6393 9.17339 5.56908 9.39586 5.51822C9.44016 5.50772 9.49233 5.49854 9.54516 5.49L9.59536 5.48147C10.2483 5.35941 10.7641 5.35974 11.4076 5.4818L11.4548 5.49C11.5077 5.49854 11.5595 5.50772 11.61 5.51986C11.826 5.56875 12.0543 5.6393 12.303 5.73413C12.4228 5.7781 12.5403 5.82797 12.6584 5.88408C12.6696 5.88999 12.6807 5.89557 12.6915 5.9018L12.6919 5.90082C13.9158 6.48652 14.8417 7.51552 15.2995 8.7975C15.5075 9.3878 15.6086 9.94463 15.6086 10.5024C15.6086 11.0609 15.5078 11.6181 15.3001 12.2064C15.2998 12.2067 15.2998 12.2074 15.2998 12.2077C14.8486 13.471 13.944 14.4862 12.748 15.0742C12.7358 15.0818 12.7234 15.0896 12.7102 15.0962C12.7024 15.1005 12.6732 15.1142 12.6646 15.1182C12.5416 15.1766 12.4248 15.2225 12.3021 15.2691C12.0704 15.36 11.8342 15.4338 11.6055 15.486L11.4043 15.5211C11.0788 15.5808 10.7822 15.6104 10.5 15.6104ZM8.77964 14.2424C8.87578 14.286 8.9588 14.3182 9.04542 14.3507C9.24263 14.4281 9.43163 14.4878 9.61341 14.5295L9.77058 14.5558C10.3225 14.6565 10.6916 14.6555 11.2271 14.5558L11.404 14.5256C11.5674 14.4878 11.7567 14.4285 11.949 14.353C12.0458 14.3162 12.1334 14.2824 12.2204 14.2418C12.2358 14.2322 12.2522 14.223 12.2689 14.2155C13.2562 13.7446 14.0044 12.9151 14.3748 11.8789C14.5448 11.3976 14.6272 10.9474 14.6272 10.5018C14.6272 10.0572 14.5445 9.60699 14.3748 9.12497C14.0054 8.09039 13.2569 7.2586 12.2683 6.78544C12.2532 6.77822 12.2384 6.77002 12.2243 6.76149C12.1219 6.71588 12.0419 6.68307 11.9579 6.65222C11.7482 6.57216 11.5628 6.51474 11.3866 6.47504C11.3525 6.4665 11.3229 6.46224 11.2931 6.45732L11.2288 6.44583C10.6952 6.34477 10.3136 6.34378 9.77287 6.44583L9.70627 6.45732C9.67641 6.46224 9.6472 6.4665 9.61866 6.47372C9.43589 6.51507 9.25083 6.57249 9.04641 6.65058C8.94567 6.68799 8.85445 6.72638 8.76324 6.76969C8.76028 6.77068 8.757 6.77264 8.75339 6.77396C8.74617 6.77789 8.73863 6.7815 8.73141 6.78544C7.74178 7.25925 6.99464 8.09039 6.62747 9.1253C6.45553 9.60568 6.37219 10.0555 6.37219 10.5015C6.37219 10.9484 6.45553 11.3982 6.62714 11.8766C6.99497 12.9138 7.74178 13.7433 8.73075 14.2152C8.74748 14.2237 8.76356 14.2322 8.77964 14.2424Z" fill="#007890"/>
</g>
<defs>
<clipPath id="clip0">
<rect width="21" height="21" fill="white"/>
</clipPath>
</defs>
</svg>
