<svg width="22" height="22" viewBox="0 0 22 22" fill="none" xmlns="http://www.w3.org/2000/svg">
<path d="M21.6206 18.207H0.379327C0.169855 18.207 0 18.0372 0 17.8277V4.17254C0 3.96307 0.169855 3.79321 0.379327 3.79321H21.6207C21.8301 3.79321 22 3.96307 22 4.17254V17.8277C22 18.0372 21.8301 18.207 21.6206 18.207Z" fill="#F5F5F5"/>
<path d="M22 4.90202H0V4.17254C0 3.96307 0.169855 3.79321 0.379327 3.79321H21.6207C21.8301 3.79321 22 3.96307 22 4.17254L22 4.90202Z" fill="#FF4B55"/>
<path d="M22 8.22803H0V9.33679H22V8.22803Z" fill="#FF4B55"/>
<path d="M22 6.01074H0V7.1195H22V6.01074Z" fill="#FF4B55"/>
<path d="M22 11.5546H0.379327C0.169855 11.5546 0 11.3847 0 11.1753V10.4458H22V11.5546Z" fill="#FF4B55"/>
<path d="M22 14.8811H0V15.9899H22V14.8811Z" fill="#FF4B55"/>
<path d="M21.6206 18.2069H0.379327C0.169855 18.2069 0 18.0371 0 17.8276V17.0981H22V17.8276C22 18.0371 21.8301 18.2069 21.6206 18.2069Z" fill="#FF4B55"/>
<path d="M22 12.6633H0V13.7721H22V12.6633Z" fill="#FF4B55"/>
<path d="M9.86204 3.79297H0.379327C0.169855 3.79297 0 3.96278 0 4.17225V11.1749C0 11.3843 0.169855 11.5542 0.379327 11.5542H9.86208C10.0716 11.5542 10.2414 11.3843 10.2414 11.1749V4.17225C10.2414 3.96278 10.0715 3.79297 9.86204 3.79297Z" fill="#41479B"/>
<path d="M1.06504 4.66386L1.149 4.91565L1.41441 4.91767C1.44879 4.91797 1.46301 4.9618 1.43538 4.98221L1.22187 5.13991L1.30197 5.39295C1.31236 5.42569 1.27502 5.45285 1.24705 5.43282L1.03113 5.27852L0.815218 5.43287C0.787245 5.45285 0.749991 5.42573 0.760304 5.39299L0.840397 5.13995L0.626886 4.98226C0.599258 4.9618 0.61348 4.91802 0.647855 4.91772L0.913272 4.9157L0.997233 4.6639C1.00806 4.63125 1.05412 4.63125 1.06504 4.66386Z" fill="#F5F5F5"/>
<path d="M1.06504 5.98097L1.149 6.23276L1.41441 6.23478C1.44879 6.23508 1.46301 6.27891 1.43538 6.29932L1.22187 6.45701L1.30197 6.71006C1.31236 6.7428 1.27502 6.76995 1.24705 6.74993L1.03113 6.59563L0.815218 6.74997C0.787245 6.76995 0.749991 6.74284 0.760304 6.7101L0.840397 6.45706L0.626886 6.29936C0.599258 6.27891 0.61348 6.23512 0.647855 6.23482L0.913272 6.2328L0.997233 5.98101C1.00806 5.94839 1.05412 5.9484 1.06504 5.98097Z" fill="#F5F5F5"/>
<path d="M1.06504 7.29786L1.149 7.54966L1.41441 7.55168C1.44879 7.55198 1.46301 7.59581 1.43538 7.61622L1.22187 7.77391L1.30197 8.02696C1.31236 8.0597 1.27502 8.08686 1.24705 8.06684L1.03113 7.91253L0.815218 8.06688C0.787245 8.08686 0.749991 8.05975 0.760304 8.027L0.840397 7.77396L0.626886 7.61626C0.599258 7.59581 0.61348 7.55202 0.647855 7.55172L0.913272 7.5497L0.997233 7.2979C1.00806 7.26529 1.05412 7.26529 1.06504 7.29786Z" fill="#F5F5F5"/>
<path d="M1.06504 8.61503L1.149 8.86683L1.41441 8.86885C1.44879 8.86915 1.46301 8.91298 1.43538 8.93339L1.22187 9.09108L1.30197 9.34412C1.31236 9.37687 1.27502 9.40402 1.24705 9.384L1.03113 9.2297L0.815218 9.38404C0.787245 9.40402 0.749991 9.37691 0.760304 9.34417L0.840397 9.09112L0.626886 8.93343C0.599258 8.91298 0.61348 8.86919 0.647855 8.86889L0.913272 8.86687L0.997233 8.61507C1.00806 8.58242 1.05412 8.58242 1.06504 8.61503Z" fill="#F5F5F5"/>
<path d="M1.06504 9.9322L1.149 10.184L1.41441 10.186C1.44879 10.1863 1.46301 10.2302 1.43538 10.2506L1.22187 10.4083L1.30197 10.6613C1.31236 10.694 1.27502 10.7212 1.24705 10.7012L1.03113 10.5469L0.815218 10.7012C0.787245 10.7212 0.749991 10.6941 0.760304 10.6613L0.840397 10.4083L0.626886 10.2506C0.599258 10.2302 0.61348 10.1864 0.647855 10.1861L0.913272 10.184L0.997233 9.93225C1.00806 9.89955 1.05412 9.89955 1.06504 9.9322Z" fill="#F5F5F5"/>
<path d="M2.0875 5.30934L2.17146 5.56114L2.43688 5.56316C2.47125 5.56346 2.48547 5.60728 2.45784 5.62769L2.24433 5.78539L2.32443 6.03843C2.33483 6.07117 2.29749 6.09833 2.26951 6.07831L2.0536 5.92396L1.83768 6.07831C1.80971 6.09829 1.77245 6.07117 1.78276 6.03843L1.86286 5.78539L1.64935 5.62769C1.62172 5.60724 1.63594 5.56346 1.67032 5.56316L1.93573 5.56114L2.01969 5.30934C2.03048 5.27677 2.07663 5.27677 2.0875 5.30934Z" fill="#F5F5F5"/>
<path d="M2.0875 6.62651L2.17146 6.8783L2.43688 6.88032C2.47125 6.88062 2.48547 6.92445 2.45784 6.94486L2.24433 7.10255L2.32443 7.35559C2.33483 7.38833 2.29749 7.41549 2.26951 7.39547L2.0536 7.24113L1.83768 7.39547C1.80971 7.41545 1.77245 7.38838 1.78276 7.35559L1.86286 7.10255L1.64935 6.94486C1.62172 6.92441 1.63594 6.88062 1.67032 6.88032L1.93573 6.8783L2.01969 6.62651C2.03048 6.5939 2.07663 6.5939 2.0875 6.62651Z" fill="#F5F5F5"/>
<path d="M2.0875 7.94389L2.17146 8.19569L2.43688 8.19771C2.47125 8.19801 2.48547 8.24184 2.45784 8.26225L2.24433 8.41994L2.32443 8.67299C2.33483 8.70573 2.29749 8.73288 2.26951 8.71286L2.0536 8.55852L1.83768 8.71286C1.80971 8.73284 1.77245 8.70573 1.78276 8.67299L1.86286 8.41994L1.64935 8.26225C1.62172 8.2418 1.63594 8.19801 1.67032 8.19771L1.93573 8.19569L2.01969 7.94389C2.03048 7.91128 2.07663 7.91128 2.0875 7.94389Z" fill="#F5F5F5"/>
<path d="M2.0875 9.261L2.17146 9.5128L2.43688 9.51482C2.47125 9.51512 2.48547 9.55894 2.45784 9.57935L2.24433 9.73705L2.32443 9.99009C2.33483 10.0228 2.29749 10.05 2.26951 10.03L2.0536 9.87562L1.83768 10.03C1.80971 10.0499 1.77245 10.0228 1.78276 9.99009L1.86286 9.73705L1.64935 9.57935C1.62172 9.5589 1.63594 9.51512 1.67032 9.51482L1.93573 9.5128L2.01969 9.261C2.03048 9.22843 2.07663 9.22843 2.0875 9.261Z" fill="#F5F5F5"/>
<path d="M3.10996 4.66362L3.19392 4.91541L3.45934 4.91743C3.49372 4.91773 3.50794 4.96156 3.48031 4.98197L3.2668 5.13967L3.34689 5.39271C3.35729 5.42545 3.31995 5.45261 3.29198 5.43258L3.07606 5.27824L2.86014 5.43258C2.83217 5.45256 2.79491 5.42545 2.80523 5.39271L2.88532 5.13967L2.67181 4.98197C2.64418 4.96152 2.6584 4.91773 2.69278 4.91743L2.9582 4.91541L3.04216 4.66362C3.05299 4.63101 3.09909 4.63101 3.10996 4.66362Z" fill="#F5F5F5"/>
<path d="M3.10996 5.98073L3.19392 6.23252L3.45934 6.23454C3.49372 6.23484 3.50794 6.27867 3.48031 6.29908L3.2668 6.45678L3.34689 6.70982C3.35729 6.74256 3.31995 6.76972 3.29198 6.74969L3.07606 6.59535L2.86014 6.74969C2.83217 6.76967 2.79491 6.74256 2.80523 6.70982L2.88532 6.45678L2.67181 6.29908C2.64418 6.27863 2.6584 6.23484 2.69278 6.23454L2.9582 6.23252L3.04216 5.98073C3.05299 5.94816 3.09909 5.94816 3.10996 5.98073Z" fill="#F5F5F5"/>
<path d="M3.10996 7.29787L3.19392 7.54967L3.45934 7.55169C3.49372 7.55199 3.50794 7.59582 3.48031 7.61623L3.2668 7.77392L3.34689 8.02697C3.35729 8.05971 3.31995 8.08687 3.29198 8.06685L3.07606 7.9125L2.86014 8.06685C2.83217 8.08683 2.79491 8.05971 2.80523 8.02697L2.88532 7.77392L2.67181 7.61623C2.64418 7.59577 2.6584 7.55199 2.69278 7.55169L2.9582 7.54967L3.04216 7.29787C3.05299 7.26529 3.09909 7.26529 3.10996 7.29787Z" fill="#F5F5F5"/>
<path d="M3.10996 8.61528L3.19392 8.86708L3.45934 8.8691C3.49372 8.8694 3.50794 8.91322 3.48031 8.93363L3.2668 9.09133L3.34689 9.34437C3.35729 9.37711 3.31995 9.40427 3.29198 9.38425L3.07606 9.2299L2.86014 9.38425C2.83217 9.40423 2.79491 9.37711 2.80523 9.34437L2.88532 9.09133L2.67181 8.93363C2.64418 8.91318 2.6584 8.8694 2.69278 8.8691L2.9582 8.86708L3.04216 8.61528C3.05299 8.58267 3.09909 8.58267 3.10996 8.61528Z" fill="#F5F5F5"/>
<path d="M3.10996 9.93245L3.19392 10.1842L3.45934 10.1863C3.49372 10.1866 3.50794 10.2304 3.48031 10.2508L3.2668 10.4085L3.34689 10.6615C3.35729 10.6943 3.31995 10.7214 3.29198 10.7014L3.07606 10.5471L2.86014 10.7014C2.83217 10.7214 2.79491 10.6943 2.80523 10.6615L2.88532 10.4085L2.67181 10.2508C2.64418 10.2304 2.6584 10.1866 2.69278 10.1863L2.9582 10.1842L3.04216 9.93245C3.05299 9.89979 3.09909 9.89979 3.10996 9.93245Z" fill="#F5F5F5"/>
<path d="M4.13193 5.30934L4.21589 5.56114L4.48131 5.56316C4.51569 5.56346 4.52991 5.60728 4.50228 5.62769L4.28877 5.78539L4.36886 6.03843C4.37926 6.07117 4.34192 6.09833 4.31395 6.07831L4.09803 5.92396L3.88211 6.07831C3.85414 6.09829 3.81689 6.07117 3.8272 6.03843L3.90729 5.78539L3.69378 5.62769C3.66615 5.60724 3.68037 5.56346 3.71475 5.56316L3.98017 5.56114L4.06413 5.30934C4.07491 5.27677 4.12106 5.27677 4.13193 5.30934Z" fill="#F5F5F5"/>
<path d="M4.13193 6.62651L4.21589 6.8783L4.48131 6.88032C4.51569 6.88062 4.52991 6.92445 4.50228 6.94486L4.28877 7.10255L4.36886 7.35559C4.37926 7.38833 4.34192 7.41549 4.31395 7.39547L4.09803 7.24113L3.88211 7.39547C3.85414 7.41545 3.81689 7.38838 3.8272 7.35559L3.90729 7.10255L3.69378 6.94486C3.66615 6.92441 3.68037 6.88062 3.71475 6.88032L3.98017 6.8783L4.06413 6.62651C4.07491 6.5939 4.12106 6.5939 4.13193 6.62651Z" fill="#F5F5F5"/>
<path d="M4.13193 7.94389L4.21589 8.19569L4.48131 8.19771C4.51569 8.19801 4.52991 8.24184 4.50228 8.26225L4.28877 8.41994L4.36886 8.67299C4.37926 8.70573 4.34192 8.73288 4.31395 8.71286L4.09803 8.55852L3.88211 8.71286C3.85414 8.73284 3.81689 8.70573 3.8272 8.67299L3.90729 8.41994L3.69378 8.26225C3.66615 8.2418 3.68037 8.19801 3.71475 8.19771L3.98017 8.19569L4.06413 7.94389C4.07491 7.91128 4.12106 7.91128 4.13193 7.94389Z" fill="#F5F5F5"/>
<path d="M4.13193 9.261L4.21589 9.5128L4.48131 9.51482C4.51569 9.51512 4.52991 9.55894 4.50228 9.57935L4.28877 9.73705L4.36886 9.99009C4.37926 10.0228 4.34192 10.05 4.31395 10.03L4.09803 9.87562L3.88211 10.03C3.85414 10.0499 3.81689 10.0228 3.8272 9.99009L3.90729 9.73705L3.69378 9.57935C3.66615 9.5589 3.68037 9.51512 3.71475 9.51482L3.98017 9.5128L4.06413 9.261C4.07491 9.22843 4.12106 9.22843 4.13193 9.261Z" fill="#F5F5F5"/>
<path d="M5.15443 4.66362L5.23839 4.91541L5.50381 4.91743C5.53818 4.91773 5.55241 4.96156 5.52478 4.98197L5.31127 5.13967L5.39136 5.39271C5.40176 5.42545 5.36442 5.45261 5.33645 5.43258L5.12049 5.27824L4.90457 5.43258C4.8766 5.45256 4.83935 5.42545 4.84966 5.39271L4.92975 5.13967L4.71624 4.98197C4.68861 4.96152 4.70284 4.91773 4.73721 4.91743L5.00263 4.91541L5.08659 4.66362C5.09746 4.63101 5.14356 4.63101 5.15443 4.66362Z" fill="#F5F5F5"/>
<path d="M5.15443 5.98073L5.23839 6.23252L5.50381 6.23454C5.53818 6.23484 5.55241 6.27867 5.52478 6.29908L5.31127 6.45678L5.39136 6.70982C5.40176 6.74256 5.36442 6.76972 5.33645 6.74969L5.12049 6.59535L4.90457 6.74969C4.8766 6.76967 4.83935 6.74256 4.84966 6.70982L4.92975 6.45678L4.71624 6.29908C4.68861 6.27863 4.70284 6.23484 4.73721 6.23454L5.00263 6.23252L5.08659 5.98073C5.09746 5.94816 5.14356 5.94816 5.15443 5.98073Z" fill="#F5F5F5"/>
<path d="M5.15443 7.29787L5.23839 7.54967L5.50381 7.55169C5.53818 7.55199 5.55241 7.59582 5.52478 7.61623L5.31127 7.77392L5.39136 8.02697C5.40176 8.05971 5.36442 8.08687 5.33645 8.06685L5.12049 7.9125L4.90457 8.06685C4.8766 8.08683 4.83935 8.05971 4.84966 8.02697L4.92975 7.77392L4.71624 7.61623C4.68861 7.59577 4.70284 7.55199 4.73721 7.55169L5.00263 7.54967L5.08659 7.29787C5.09746 7.26529 5.14356 7.26529 5.15443 7.29787Z" fill="#F5F5F5"/>
<path d="M5.15443 8.61528L5.23839 8.86708L5.50381 8.8691C5.53818 8.8694 5.55241 8.91322 5.52478 8.93363L5.31127 9.09133L5.39136 9.34437C5.40176 9.37711 5.36442 9.40427 5.33645 9.38425L5.12049 9.2299L4.90457 9.38425C4.8766 9.40423 4.83935 9.37711 4.84966 9.34437L4.92975 9.09133L4.71624 8.93363C4.68861 8.91318 4.70284 8.8694 4.73721 8.8691L5.00263 8.86708L5.08659 8.61528C5.09746 8.58267 5.14356 8.58267 5.15443 8.61528Z" fill="#F5F5F5"/>
<path d="M5.15443 9.93245L5.23839 10.1842L5.50381 10.1863C5.53818 10.1866 5.55241 10.2304 5.52478 10.2508L5.31127 10.4085L5.39136 10.6615C5.40176 10.6943 5.36442 10.7214 5.33645 10.7014L5.12049 10.5471L4.90457 10.7014C4.8766 10.7214 4.83935 10.6943 4.84966 10.6615L4.92975 10.4085L4.71624 10.2508C4.68861 10.2304 4.70284 10.1866 4.73721 10.1863L5.00263 10.1842L5.08659 9.93245C5.09746 9.89979 5.14356 9.89979 5.15443 9.93245Z" fill="#F5F5F5"/>
<path d="M6.17686 5.30934L6.26082 5.56114L6.52624 5.56316C6.56062 5.56346 6.57484 5.60728 6.54721 5.62769L6.3337 5.78539L6.41379 6.03843C6.42419 6.07117 6.38685 6.09833 6.35888 6.07831L6.14296 5.92396L5.92704 6.07831C5.89906 6.09829 5.86181 6.07117 5.87212 6.03843L5.95222 5.78539L5.7387 5.62769C5.71107 5.60724 5.7253 5.56346 5.75967 5.56316L6.02509 5.56114L6.10905 5.30934C6.11992 5.27677 6.16599 5.27677 6.17686 5.30934Z" fill="#F5F5F5"/>
<path d="M6.17686 6.62651L6.26082 6.8783L6.52624 6.88032C6.56062 6.88062 6.57484 6.92445 6.54721 6.94486L6.3337 7.10255L6.41379 7.35559C6.42419 7.38833 6.38685 7.41549 6.35888 7.39547L6.14296 7.24113L5.92704 7.39547C5.89906 7.41545 5.86181 7.38838 5.87212 7.35559L5.95222 7.10255L5.7387 6.94486C5.71107 6.92441 5.7253 6.88062 5.75967 6.88032L6.02509 6.8783L6.10905 6.62651C6.11992 6.5939 6.16599 6.5939 6.17686 6.62651Z" fill="#F5F5F5"/>
<path d="M6.17686 7.94389L6.26082 8.19569L6.52624 8.19771C6.56062 8.19801 6.57484 8.24184 6.54721 8.26225L6.3337 8.41994L6.41379 8.67299C6.42419 8.70573 6.38685 8.73288 6.35888 8.71286L6.14296 8.55852L5.92704 8.71286C5.89906 8.73284 5.86181 8.70573 5.87212 8.67299L5.95222 8.41994L5.7387 8.26225C5.71107 8.2418 5.7253 8.19801 5.75967 8.19771L6.02509 8.19569L6.10905 7.94389C6.11992 7.91128 6.16599 7.91128 6.17686 7.94389Z" fill="#F5F5F5"/>
<path d="M6.17686 9.261L6.26082 9.5128L6.52624 9.51482C6.56062 9.51512 6.57484 9.55894 6.54721 9.57935L6.3337 9.73705L6.41379 9.99009C6.42419 10.0228 6.38685 10.05 6.35888 10.03L6.14296 9.87562L5.92704 10.03C5.89906 10.0499 5.86181 10.0228 5.87212 9.99009L5.95222 9.73705L5.7387 9.57935C5.71107 9.5589 5.7253 9.51512 5.75967 9.51482L6.02509 9.5128L6.10905 9.261C6.11992 9.22843 6.16599 9.22843 6.17686 9.261Z" fill="#F5F5F5"/>
<path d="M7.19932 4.66362L7.28328 4.91541L7.5487 4.91743C7.58308 4.91773 7.5973 4.96156 7.56967 4.98197L7.35616 5.13967L7.43625 5.39271C7.44665 5.42545 7.40931 5.45261 7.38134 5.43258L7.16542 5.27824L6.9495 5.43258C6.92152 5.45256 6.88427 5.42545 6.89458 5.39271L6.97468 5.13967L6.76116 4.98197C6.73353 4.96152 6.74776 4.91773 6.78213 4.91743L7.04755 4.91541L7.13151 4.66362C7.1423 4.63101 7.18845 4.63101 7.19932 4.66362Z" fill="#F5F5F5"/>
<path d="M7.19932 5.98073L7.28328 6.23252L7.5487 6.23454C7.58308 6.23484 7.5973 6.27867 7.56967 6.29908L7.35616 6.45678L7.43625 6.70982C7.44665 6.74256 7.40931 6.76972 7.38134 6.74969L7.16542 6.59535L6.9495 6.74969C6.92152 6.76967 6.88427 6.74256 6.89458 6.70982L6.97468 6.45678L6.76116 6.29908C6.73353 6.27863 6.74776 6.23484 6.78213 6.23454L7.04755 6.23252L7.13151 5.98073C7.1423 5.94816 7.18845 5.94816 7.19932 5.98073Z" fill="#F5F5F5"/>
<path d="M7.19932 7.29787L7.28328 7.54967L7.5487 7.55169C7.58308 7.55199 7.5973 7.59582 7.56967 7.61623L7.35616 7.77392L7.43625 8.02697C7.44665 8.05971 7.40931 8.08687 7.38134 8.06685L7.16542 7.9125L6.9495 8.06685C6.92152 8.08683 6.88427 8.05971 6.89458 8.02697L6.97468 7.77392L6.76116 7.61623C6.73353 7.59577 6.74776 7.55199 6.78213 7.55169L7.04755 7.54967L7.13151 7.29787C7.1423 7.26529 7.18845 7.26529 7.19932 7.29787Z" fill="#F5F5F5"/>
<path d="M7.19932 8.61528L7.28328 8.86708L7.5487 8.8691C7.58308 8.8694 7.5973 8.91322 7.56967 8.93363L7.35616 9.09133L7.43625 9.34437C7.44665 9.37711 7.40931 9.40427 7.38134 9.38425L7.16542 9.2299L6.9495 9.38425C6.92152 9.40423 6.88427 9.37711 6.89458 9.34437L6.97468 9.09133L6.76116 8.93363C6.73353 8.91318 6.74776 8.8694 6.78213 8.8691L7.04755 8.86708L7.13151 8.61528C7.1423 8.58267 7.18845 8.58267 7.19932 8.61528Z" fill="#F5F5F5"/>
<path d="M7.19932 9.93245L7.28328 10.1842L7.5487 10.1863C7.58308 10.1866 7.5973 10.2304 7.56967 10.2508L7.35616 10.4085L7.43625 10.6615C7.44665 10.6943 7.40931 10.7214 7.38134 10.7014L7.16542 10.5471L6.9495 10.7014C6.92152 10.7214 6.88427 10.6943 6.89458 10.6615L6.97468 10.4085L6.76116 10.2508C6.73353 10.2304 6.74776 10.1866 6.78213 10.1863L7.04755 10.1842L7.13151 9.93245C7.1423 9.89979 7.18845 9.89979 7.19932 9.93245Z" fill="#F5F5F5"/>
<path d="M8.22177 5.30934L8.30573 5.56114L8.57115 5.56316C8.60553 5.56346 8.61975 5.60728 8.59212 5.62769L8.37861 5.78539L8.4587 6.03843C8.4691 6.07117 8.43176 6.09833 8.40379 6.07831L8.18787 5.92396L7.97196 6.07831C7.94398 6.09829 7.90673 6.07117 7.91704 6.03843L7.99713 5.78539L7.78362 5.62769C7.756 5.60724 7.77022 5.56346 7.80459 5.56316L8.07001 5.56114L8.15397 5.30934C8.1648 5.27677 8.21095 5.27677 8.22177 5.30934Z" fill="#F5F5F5"/>
<path d="M8.22177 6.62651L8.30573 6.8783L8.57115 6.88032C8.60553 6.88062 8.61975 6.92445 8.59212 6.94486L8.37861 7.10255L8.4587 7.35559C8.4691 7.38833 8.43176 7.41549 8.40379 7.39547L8.18787 7.24113L7.97196 7.39547C7.94398 7.41545 7.90673 7.38838 7.91704 7.35559L7.99713 7.10255L7.78362 6.94486C7.756 6.92441 7.77022 6.88062 7.80459 6.88032L8.07001 6.8783L8.15397 6.62651C8.1648 6.5939 8.21095 6.5939 8.22177 6.62651Z" fill="#F5F5F5"/>
<path d="M8.22177 7.94389L8.30573 8.19569L8.57115 8.19771C8.60553 8.19801 8.61975 8.24184 8.59212 8.26225L8.37861 8.41994L8.4587 8.67299C8.4691 8.70573 8.43176 8.73288 8.40379 8.71286L8.18787 8.55852L7.97196 8.71286C7.94398 8.73284 7.90673 8.70573 7.91704 8.67299L7.99713 8.41994L7.78362 8.26225C7.756 8.2418 7.77022 8.19801 7.80459 8.19771L8.07001 8.19569L8.15397 7.94389C8.1648 7.91128 8.21095 7.91128 8.22177 7.94389Z" fill="#F5F5F5"/>
<path d="M8.22177 9.261L8.30573 9.5128L8.57115 9.51482C8.60553 9.51512 8.61975 9.55894 8.59212 9.57935L8.37861 9.73705L8.4587 9.99009C8.4691 10.0228 8.43176 10.05 8.40379 10.03L8.18787 9.87562L7.97196 10.03C7.94398 10.0499 7.90673 10.0228 7.91704 9.99009L7.99713 9.73705L7.78362 9.57935C7.756 9.5589 7.77022 9.51512 7.80459 9.51482L8.07001 9.5128L8.15397 9.261C8.1648 9.22843 8.21095 9.22843 8.22177 9.261Z" fill="#F5F5F5"/>
<path d="M9.24424 4.66362L9.3282 4.91541L9.59362 4.91743C9.62799 4.91773 9.64221 4.96156 9.61459 4.98197L9.40107 5.13967L9.48117 5.39271C9.49157 5.42545 9.45423 5.45261 9.42625 5.43258L9.21034 5.27824L8.99442 5.43258C8.96645 5.45256 8.92919 5.42545 8.9395 5.39271L9.0196 5.13967L8.80609 4.98197C8.77846 4.96152 8.79268 4.91773 8.82705 4.91743L9.09247 4.91541L9.17643 4.66362C9.18726 4.63101 9.23332 4.63101 9.24424 4.66362Z" fill="#F5F5F5"/>
<path d="M9.24424 5.98073L9.3282 6.23252L9.59362 6.23454C9.62799 6.23484 9.64221 6.27867 9.61459 6.29908L9.40107 6.45678L9.48117 6.70982C9.49157 6.74256 9.45423 6.76972 9.42625 6.74969L9.21034 6.59535L8.99442 6.74969C8.96645 6.76967 8.92919 6.74256 8.9395 6.70982L9.0196 6.45678L8.80609 6.29908C8.77846 6.27863 8.79268 6.23484 8.82705 6.23454L9.09247 6.23252L9.17643 5.98073C9.18726 5.94816 9.23332 5.94816 9.24424 5.98073Z" fill="#F5F5F5"/>
<path d="M9.24424 7.29787L9.3282 7.54967L9.59362 7.55169C9.62799 7.55199 9.64221 7.59582 9.61459 7.61623L9.40107 7.77392L9.48117 8.02697C9.49157 8.05971 9.45423 8.08687 9.42625 8.06685L9.21034 7.9125L8.99442 8.06685C8.96645 8.08683 8.92919 8.05971 8.9395 8.02697L9.0196 7.77392L8.80609 7.61623C8.77846 7.59577 8.79268 7.55199 8.82705 7.55169L9.09247 7.54967L9.17643 7.29787C9.18726 7.26529 9.23332 7.26529 9.24424 7.29787Z" fill="#F5F5F5"/>
<path d="M9.24424 8.61528L9.3282 8.86708L9.59362 8.8691C9.62799 8.8694 9.64221 8.91322 9.61459 8.93363L9.40107 9.09133L9.48117 9.34437C9.49157 9.37711 9.45423 9.40427 9.42625 9.38425L9.21034 9.2299L8.99442 9.38425C8.96645 9.40423 8.92919 9.37711 8.9395 9.34437L9.0196 9.09133L8.80609 8.93363C8.77846 8.91318 8.79268 8.8694 8.82705 8.8691L9.09247 8.86708L9.17643 8.61528C9.18726 8.58267 9.23332 8.58267 9.24424 8.61528Z" fill="#F5F5F5"/>
<path d="M9.24424 9.93245L9.3282 10.1842L9.59362 10.1863C9.62799 10.1866 9.64221 10.2304 9.61459 10.2508L9.40107 10.4085L9.48117 10.6615C9.49157 10.6943 9.45423 10.7214 9.42625 10.7014L9.21034 10.5471L8.99442 10.7014C8.96645 10.7214 8.92919 10.6943 8.9395 10.6615L9.0196 10.4085L8.80609 10.2508C8.77846 10.2304 8.79268 10.1866 8.82705 10.1863L9.09247 10.1842L9.17643 9.93245C9.18726 9.89979 9.23332 9.89979 9.24424 9.93245Z" fill="#F5F5F5"/>
</svg>
