<svg width="20" height="20" viewBox="0 0 20 20" fill="none" xmlns="http://www.w3.org/2000/svg">
<path d="M8.294 16.998C7.859 16.998 7.447 16.795 7.183 16.445L3.61 11.724C3.49953 11.5782 3.41888 11.4121 3.37267 11.2351C3.32645 11.0581 3.31557 10.8738 3.34064 10.6926C3.36572 10.5114 3.42626 10.3369 3.5188 10.1791C3.61135 10.0213 3.73409 9.88334 3.88 9.77302C4.02586 9.66225 4.19214 9.58134 4.36933 9.53495C4.54651 9.48856 4.73111 9.47759 4.91254 9.50267C5.09397 9.52776 5.26867 9.5884 5.42662 9.68112C5.58457 9.77384 5.72267 9.89683 5.833 10.043L8.184 13.147L14.095 3.65502C14.291 3.34162 14.6034 3.11877 14.9635 3.03535C15.3236 2.95192 15.7021 3.01474 16.016 3.21002C16.669 3.61602 16.87 4.47602 16.462 5.13002L9.478 16.34C9.35878 16.5322 9.19445 16.6925 8.99927 16.8068C8.8041 16.9211 8.58397 16.9861 8.358 16.996C8.336 16.998 8.316 16.998 8.294 16.998V16.998Z" fill="black"/>
</svg>
