<svg width="22" height="22" viewBox="0 0 28 28" fill="none" xmlns="http://www.w3.org/2000/svg">
<g clip-path="url(#clip0)">
<path d="M24.7407 12.3885L23.8072 10.8209C23.5447 10.3801 23.4059 9.87585 23.4059 9.36266C23.4059 8.58369 23.7303 7.82971 24.2958 7.29405L24.7963 6.81985C25.5693 6.0877 25.7097 4.90798 25.1302 4.01482L23.1808 1.01029C22.553 0.0428149 21.3115 -0.279076 20.2929 0.261893L19.0832 0.904143C18.0695 1.44227 16.8482 1.46436 15.8159 0.963424L14.964 0.549987C14.3512 0.25276 13.6485 0.25276 13.0359 0.550096L12.1843 0.963315C11.1518 1.46431 9.93028 1.4421 8.91681 0.903815L7.70734 0.261565C6.68857 -0.279458 5.44694 0.042268 4.81913 1.00996L2.86974 4.01482C2.29033 4.90809 2.43082 6.08775 3.20383 6.81991L3.704 7.29361C4.26963 7.82933 4.59404 8.58336 4.59404 9.36244C4.59404 9.87546 4.45529 10.3796 4.19285 10.8204L3.25928 12.388C2.45193 13.7437 2.02515 15.2945 2.02515 16.8728C2.02515 21.7054 5.95701 25.6371 10.79 25.6371C11.15 25.6371 11.4932 25.7919 11.7314 26.062L13.0709 27.5807C13.3061 27.8471 13.6447 28 14 28C14.3554 28 14.694 27.8471 14.929 27.5807L16.2685 26.0621C16.5067 25.792 16.8499 25.6372 17.2105 25.6372C19.5515 25.6372 21.7523 24.7255 23.4076 23.0704C25.0631 21.415 25.9748 19.214 25.9748 16.8729C25.9748 15.2948 25.548 13.7442 24.7407 12.3885ZM22.8276 22.4903C21.3272 23.9906 19.3324 24.8169 17.21 24.8169C16.6146 24.8169 16.0472 25.073 15.6533 25.5195L14.3138 27.0381C14.1497 27.2241 13.8502 27.2241 13.6862 27.0381L12.3466 25.5194C11.9528 25.0728 11.3854 24.8168 10.79 24.8168C6.40939 24.8168 2.84551 21.2532 2.84551 16.8728C2.84551 15.4423 3.23232 14.0366 3.96415 12.8078L4.89772 11.2401C5.23574 10.6724 5.4144 10.0232 5.4144 9.36249C5.4144 8.35914 4.99659 7.388 4.2681 6.69812L3.76793 6.22442C3.28208 5.76422 3.19376 5.02277 3.55793 4.4614L5.50732 1.45654C5.77288 1.04721 6.21317 0.821784 6.66795 0.821784C6.88889 0.821784 7.11327 0.874995 7.32262 0.986174L8.53203 1.62842C9.77601 2.28899 11.2752 2.31639 12.5425 1.70143L13.3941 1.28816C13.7791 1.10124 14.2208 1.10124 14.6059 1.2881L15.4578 1.70149C16.7248 2.31634 18.224 2.28916 19.4678 1.62875L20.6775 0.986502C21.3177 0.646565 22.0981 0.848799 22.4927 1.45687L24.4421 4.4614C24.8064 5.02277 24.7181 5.76422 24.2323 6.22442L23.7317 6.69861C23.0034 7.38849 22.5857 8.35953 22.5857 9.36277C22.5857 10.0237 22.7643 10.673 23.1024 11.2407L24.036 12.8084C24.7678 14.0371 25.1546 15.4426 25.1546 16.8729C25.1545 18.9949 24.3281 20.9899 22.8276 22.4903C24.3281 20.9899 21.3272 23.9906 22.8276 22.4903Z" fill="#909090"/>
<path d="M23.3169 13.2367L22.3833 11.6691C21.9681 10.9719 21.7487 10.1745 21.7487 9.36311C21.7487 8.13089 22.2617 6.93827 23.1561 6.09105L23.6569 5.61674C23.8495 5.43409 23.8846 5.13987 23.7401 4.91702L21.7905 1.91221C21.6338 1.6712 21.3242 1.59103 21.0701 1.72578L19.8604 2.36803C18.3814 3.15318 16.5989 3.18561 15.0924 2.45455L14.2409 2.04138C14.0878 1.9669 13.9122 1.96684 13.7596 2.04122L12.908 2.45444C11.4012 3.18555 9.61867 3.15313 8.13959 2.3677L6.93013 1.7254C6.68015 1.59273 6.36345 1.67541 6.20962 1.91216L4.26023 4.91696C4.11563 5.13992 4.15074 5.43425 4.34357 5.6168L4.84374 6.0905C5.73838 6.93777 6.25151 8.1304 6.25151 9.36262C6.25151 10.174 6.03205 10.9714 5.61697 11.6685L4.68334 13.2362C4.02868 14.3355 3.68262 15.5929 3.68262 16.8725C3.68262 20.7915 6.87079 23.98 10.7896 23.98C11.6255 23.98 12.4218 24.3393 12.9745 24.9659L13.6926 25.78C13.8533 25.9623 14.147 25.9624 14.3077 25.78L15.0258 24.966C15.5784 24.3394 16.3745 23.98 17.2107 23.98C19.109 23.98 20.8936 23.2408 22.2359 21.8986C23.5783 20.5562 24.3176 18.7714 24.3176 16.873C24.3176 15.5934 23.9716 14.336 23.3169 13.2367ZM22.3019 20.5628H10.1721C9.94559 20.5628 9.76195 20.7464 9.76195 20.973C9.76195 21.1995 9.94559 21.3831 10.1721 21.3831H21.5897C20.4101 22.5293 18.8589 23.1598 17.21 23.1598C16.1392 23.1598 15.1189 23.6204 14.4106 24.4234L14.0002 24.8887L13.5897 24.4233C12.8814 23.6203 11.8609 23.1597 10.7897 23.1597C9.09083 23.1597 7.54749 22.482 6.41497 21.3831H8.2581C8.48462 21.3831 8.66826 21.1996 8.66826 20.973C8.66826 20.7465 8.48462 20.5628 8.2581 20.5628H5.70316C4.94874 19.5257 4.50293 18.2503 4.50293 16.8725C4.50293 16.3632 4.56544 15.858 4.68635 15.3676H18.8025C19.029 15.3676 19.2126 15.184 19.2126 14.9575C19.2126 14.7309 19.029 14.5473 18.8025 14.5473H4.94956C5.07179 14.2402 5.2178 13.9419 5.38816 13.6559L6.32178 12.0881C6.81249 11.2642 7.07182 10.3217 7.07182 9.36256C7.07182 7.90602 6.46528 6.49628 5.40784 5.49484L5.07042 5.17525L6.76344 2.56556L7.75492 3.09215C9.4644 3.99985 11.5246 4.03737 13.2662 3.19234L14.0001 2.83627L14.7343 3.1925C16.4754 4.03748 18.5356 4.00013 20.2451 3.09253L21.2368 2.566L22.9298 5.17547L22.5919 5.49545C21.5347 6.49688 20.9284 7.90662 20.9284 9.36305C20.9284 10.3222 21.1878 11.2646 21.6784 12.0887L22.612 13.6564C22.7822 13.9423 22.9282 14.2404 23.0504 14.5474H20.7164C20.4899 14.5474 20.3062 14.731 20.3062 14.9575C20.3062 15.1841 20.4898 15.3677 20.7164 15.3677H23.3137C23.4347 15.8582 23.4973 16.3635 23.4973 16.8731C23.4973 18.2172 23.078 19.4967 22.3019 20.5628Z" fill="#909090"/>
<path d="M18.017 7.52661L15.7361 7.19521C15.6916 7.18875 15.6531 7.16075 15.6331 7.12039L14.613 5.05343C14.497 4.81838 14.2621 4.67242 14 4.67236C13.738 4.67236 13.5031 4.81838 13.387 5.05343L12.3669 7.12039C12.347 7.16075 12.3085 7.18875 12.264 7.19521L9.9829 7.52661C9.72352 7.56435 9.51215 7.74263 9.43116 7.99195C9.35022 8.24116 9.41645 8.50968 9.60413 8.69261L11.2547 10.3015C11.2869 10.3329 11.3016 10.3781 11.294 10.4225L10.9043 12.6943C10.86 12.9527 10.9642 13.2089 11.1763 13.3629C11.3855 13.515 11.6672 13.5353 11.8962 13.4149L13.9365 12.3423C13.9763 12.3213 14.0239 12.3213 14.0636 12.3423L16.1039 13.4149C16.3357 13.5367 16.6116 13.517 16.8237 13.3629C17.0358 13.2089 17.14 12.9527 17.0957 12.6944L16.7061 10.4225C16.6985 10.3781 16.7132 10.3329 16.7454 10.3015L18.396 8.69261C18.5837 8.50968 18.6499 8.24116 18.569 7.99195C18.488 7.74263 18.2765 7.5644 18.017 7.52661ZM16.1728 9.71411C15.9472 9.93407 15.8443 10.2508 15.8976 10.5612L16.2404 12.56L14.4455 11.6164C14.1692 11.4709 13.831 11.4709 13.5548 11.6163L11.7598 12.56L12.1025 10.5612C12.1558 10.2507 12.0529 9.93407 11.8273 9.71406L10.3751 8.29853L12.382 8.00693C12.6938 7.9616 12.9631 7.76593 13.1025 7.48341L14 5.66483L14.8976 7.48336C15.037 7.76587 15.3062 7.9616 15.6181 8.00693L17.625 8.29853L16.1728 9.71411Z" fill="#909090"/>
<path d="M20.4529 5.35986C20.7549 5.35986 20.9998 5.11502 20.9998 4.81299C20.9998 4.51096 20.7549 4.26611 20.4529 4.26611C20.1509 4.26611 19.906 4.51096 19.906 4.81299C19.906 5.11502 20.1509 5.35986 20.4529 5.35986Z" fill="#909090"/>
<path d="M7.54712 5.35986C7.84915 5.35986 8.09399 5.11502 8.09399 4.81299C8.09399 4.51096 7.84915 4.26611 7.54712 4.26611C7.24509 4.26611 7.00024 4.51096 7.00024 4.81299C7.00024 5.11502 7.24509 5.35986 7.54712 5.35986Z" fill="#909090"/>
<path d="M14 23.3242C14.302 23.3242 14.5469 23.0794 14.5469 22.7773C14.5469 22.4753 14.302 22.2305 14 22.2305C13.698 22.2305 13.4531 22.4753 13.4531 22.7773C13.4531 23.0794 13.698 23.3242 14 23.3242Z" fill="#909090"/>
</g>
<defs>
<clipPath id="clip0">
<rect width="28" height="28" fill="white"/>
</clipPath>
</defs>
</svg>
