<svg width="20" height="20" viewBox="0 0 25 25" fill="none" xmlns="http://www.w3.org/2000/svg">
<g clip-path="url(#clip0)">
<path d="M0.1 12.5C0.1 5.64648 5.6459 0.1 12.5 0.1C19.3535 0.1 24.9 5.6459 24.9 12.5C24.9 19.3535 19.3541 24.9 12.5 24.9C5.64648 24.9 0.1 19.3541 0.1 12.5ZM1.56665 12.5C1.56665 18.5288 6.47129 23.4333 12.5 23.4333C18.5287 23.4333 23.4333 18.5287 23.4333 12.5C23.4333 6.47128 18.5287 1.56665 12.5 1.56665C6.47129 1.56665 1.56665 6.47124 1.56665 12.5Z" fill="#909090" stroke="#909090" strokeWidth="0.2"/>
<path d="M13.2634 12.5002L16.5082 9.25523C16.7194 9.04415 16.7194 8.70288 16.5082 8.4918C16.2971 8.28073 15.9559 8.28073 15.7448 8.4918L12.4999 11.7368L9.25504 8.4918C9.04387 8.28073 8.7027 8.28073 8.49163 8.4918C8.28046 8.70288 8.28046 9.04415 8.49163 9.25523L11.7365 12.5002L8.49163 15.7452C8.28046 15.9563 8.28046 16.2976 8.49163 16.5087C8.59682 16.6139 8.73512 16.6668 8.87333 16.6668C9.01154 16.6668 9.14975 16.6139 9.25504 16.5087L12.4999 13.2637L15.7448 16.5087C15.8501 16.6139 15.9883 16.6668 16.1265 16.6668C16.2647 16.6668 16.4029 16.6139 16.5082 16.5087C16.7194 16.2976 16.7194 15.9563 16.5082 15.7452L13.2634 12.5002Z" fill="#909090"/>
</g>
<defs>
<clipPath id="clip0">
<rect width="25" height="25" fill="white"/>
</clipPath>
</defs>
</svg>
