<svg width="31" height="33" viewBox="0 0 31 33" fill="none" xmlns="http://www.w3.org/2000/svg">
<mask id="mask0" mask-type="alpha" maskUnits="userSpaceOnUse" x="0" y="0" width="31" height="33">
<path d="M21.5 2.50014L19 9.00014L21.5 16.5C24 14.8333 29.1 11.5 29.5 11.5C30 11.5 31.5 19 30 24C28.5 29 17.5 38.5 5.50001 26.5C-6.49999 14.5 6.50001 2.50014 7.50001 1.00014C8.30001 -0.199864 17.1667 1.50014 21.5 2.50014Z" fill="#C4C4C4"/>
</mask>
<g mask="url(#mask0)">
<path d="M15 4C8.93476 4 4 8.93476 4 15C4 21.0656 8.93476 26 15 26C21.0656 26 26 21.0656 26 15C26 8.93476 21.0656 4 15 4ZM15 23.9693C10.0544 23.9693 6.03077 19.9456 6.03077 15C6.03077 10.0545 10.0544 6.03077 15 6.03077C19.9456 6.03077 23.9692 10.0544 23.9692 15C23.9692 19.9456 19.9456 23.9693 15 23.9693Z" fill="#909090"/>
</g>
</svg>
