<svg width="19" height="19" viewBox="0 0 19 19" fill="none" xmlns="http://www.w3.org/2000/svg">
<path d="M17.7597 8.16437L14.0612 11.7696L14.9346 16.8616C14.9726 17.0843 14.8812 17.3093 14.6983 17.4423C14.595 17.5177 14.4721 17.5557 14.3492 17.5557C14.2548 17.5557 14.1598 17.5332 14.0731 17.4874L9.50003 15.0833L4.92756 17.4868C4.72806 17.5925 4.48522 17.5753 4.30234 17.4417C4.11947 17.3087 4.02803 17.0837 4.06603 16.861L4.93944 11.769L1.24038 8.16437C1.07888 8.00643 1.02009 7.77012 1.09016 7.55578C1.16022 7.34143 1.34606 7.18409 1.56991 7.15143L6.6815 6.40924L8.96744 1.7768C9.16753 1.37127 9.83253 1.37127 10.0326 1.7768L12.3186 6.40924L17.4302 7.15143C17.654 7.18409 17.8398 7.34084 17.9099 7.55578C17.98 7.77071 17.9212 8.00584 17.7597 8.16437Z" fill="white"/>
</svg>
