<svg width="25" height="17" viewBox="0 0 30 19" fill="none" xmlns="http://www.w3.org/2000/svg">
<path d="M27.1705 0.75H2.82952C1.33586 0.75 0.125 1.93924 0.125 3.40628V19.3438C0.125 20.8108 1.33586 22 2.82952 22H27.1705C28.6641 22 29.875 20.8108 29.875 19.3438V3.40628C29.8751 1.93924 28.6642 0.75 27.1705 0.75ZM2.82952 2.07814H27.1705C27.325 2.07911 27.4782 2.10605 27.6235 2.15781L15.9196 13.6527C15.4169 14.1497 14.5992 14.1523 14.0932 13.6586C14.0913 13.6567 14.0892 13.6547 14.0872 13.6527L2.37653 2.15781C2.5218 2.10605 2.67502 2.07905 2.82952 2.07814ZM1.47729 19.3437V3.40628C1.47038 3.32895 1.47038 3.25117 1.47729 3.17384L9.84787 11.375L1.47729 19.5762C1.47038 19.4988 1.47038 19.421 1.47729 19.3437ZM27.1705 20.6719H2.82952C2.67502 20.6709 2.5218 20.644 2.37653 20.5922L10.8079 12.3114L13.1271 14.5891C14.1576 15.605 15.8315 15.6081 16.8659 14.596C16.8682 14.5937 16.8706 14.5914 16.8729 14.5891L19.1921 12.3114L27.6235 20.5922C27.4783 20.644 27.325 20.6709 27.1705 20.6719ZM28.5228 19.5762L20.1522 11.375L28.5228 3.17384C28.5297 3.25117 28.5297 3.32895 28.5228 3.40628V19.3438C28.5297 19.421 28.5297 19.4988 28.5228 19.5762Z" fill="#909090"/>
</svg>
