<svg width="58" height="58" viewBox="0 0 58 58" fill="none" xmlns="http://www.w3.org/2000/svg">
<g clip-path="url(#clip0)">
<path d="M1.86083 36.25C1.30742 36.25 0.809583 35.8682 0.683917 35.3075C0.229583 33.2968 0 31.175 0 29C0 13.0089 13.0089 0 29 0C38.1833 0 46.9051 4.4225 52.3281 11.8296C52.722 12.3685 52.606 13.1249 52.0671 13.5188C51.5282 13.9128 50.7693 13.7968 50.3778 13.2578C45.4092 6.46942 37.4148 2.41667 29 2.41667C14.3429 2.41667 2.41667 14.3429 2.41667 29C2.41667 30.9986 2.62692 32.9416 3.04017 34.7758C3.18758 35.4283 2.77917 36.0736 2.12667 36.221C2.03725 36.2403 1.94783 36.25 1.86083 36.25Z" fill="#48519D"/>
<path d="M28.9995 58.0001C19.7461 58.0001 10.9857 53.522 5.56991 46.0207C5.17841 45.4793 5.30166 44.7229 5.84058 44.3338C6.38191 43.9423 7.13591 44.0632 7.52741 44.6045C12.4937 51.4799 20.5194 55.5834 28.9995 55.5834C43.6566 55.5834 55.5828 43.6572 55.5828 29.0001C55.5828 26.9749 55.3677 25.0343 54.94 23.2388C54.7853 22.5887 55.1865 21.9362 55.8366 21.7839C56.4915 21.6268 57.1392 22.0304 57.2914 22.6805C57.7603 24.6598 57.9995 26.7864 57.9995 29.0001C57.9995 44.9912 44.9906 58.0001 28.9995 58.0001Z" fill="#48519D"/>
<path d="M6.16319 58C5.50102 58 4.9621 57.4659 4.95485 56.8037L4.83402 44.7204C4.8316 44.399 4.95727 44.0873 5.18444 43.8601C5.4116 43.6281 5.72094 43.5 6.04235 43.5H18.1257C18.7927 43.5 19.334 44.0413 19.334 44.7083C19.334 45.3753 18.7927 45.9167 18.1257 45.9167H7.26277L7.37152 56.7796C7.37877 57.4466 6.84469 57.9928 6.17527 58C6.17285 58 6.16802 58 6.16319 58Z" fill="#48519D"/>
<path d="M51.9587 14.5H39.8753C39.2083 14.5 38.667 13.9587 38.667 13.2917C38.667 12.6247 39.2083 12.0833 39.8753 12.0833H50.7503V1.20833C50.7503 0.541333 51.2917 0 51.9587 0C52.6257 0 53.167 0.541333 53.167 1.20833V13.2917C53.167 13.9587 52.6257 14.5 51.9587 14.5Z" fill="#48519D"/>
<path d="M43 19H14V39H43V19Z" stroke="#48519D" strokeWidth="1.5" strokeMiterlimit="10" strokeLinecap="round" strokeLinejoin="round"/>
<path d="M43 38.9989L34.0772 23L27.9417 33.9992L22.9234 27.5723L14 39L25.1549 38.9989L25.1538 39L43 38.9989Z" stroke="#48519D" strokeWidth="1.5" strokeMiterlimit="10" strokeLinecap="round" strokeLinejoin="round"/>
<path d="M20.1045 31L22.6253 27.7693L24.4437 30.0992C25.3954 29.2543 26 28.0075 26 26.6144C26 24.0671 23.985 22 21.5 22C19.0145 22 17 24.0666 17 26.6144C17.0005 28.6635 18.3031 30.396 20.1045 31Z" stroke="#48519D" strokeWidth="1.5" strokeMiterlimit="10" strokeLinecap="round" strokeLinejoin="round"/>
</g>
<defs>
<clipPath id="clip0">
<rect width="58" height="58" fill="white"/>
</clipPath>
</defs>
</svg>
