<svg width="10" height="10" viewBox="0 0 10 10" fill="none" xmlns="http://www.w3.org/2000/svg">
<g clip-path="url(#clip0)">
<path d="M5.91618 5.00827L9.81 1.11435C10.0634 0.861071 10.0634 0.451547 9.81 0.198263C9.55671 -0.0550201 9.14719 -0.0550201 8.8939 0.198263L4.99997 4.09218L1.10615 0.198263C0.852744 -0.0550201 0.443337 -0.0550201 0.190052 0.198263C-0.0633508 0.451547 -0.0633508 0.861071 0.190052 1.11435L4.08387 5.00827L0.190052 8.90219C-0.0633508 9.15548 -0.0633508 9.565 0.190052 9.81829C0.316279 9.94463 0.482249 10.0081 0.6481 10.0081C0.813951 10.0081 0.979802 9.94463 1.10615 9.81829L4.99997 5.92437L8.8939 9.81829C9.02025 9.94463 9.1861 10.0081 9.35195 10.0081C9.5178 10.0081 9.68365 9.94463 9.81 9.81829C10.0634 9.565 10.0634 9.15548 9.81 8.90219L5.91618 5.00827Z" fill="#48519D"/>
</g>
<defs>
<clipPath id="clip0">
<rect width="10" height="10" fill="white"/>
</clipPath>
</defs>
</svg>