<svg width="15" height="15" viewBox="0 0 19 19" fill="none" xmlns="http://www.w3.org/2000/svg">
<g clip-path="url(#clip0)">
<path d="M11.064 9.3388L10.8872 9.51558L11.064 9.69235L18.4622 17.0908L18.4623 17.0908C18.846 17.4744 18.846 18.0942 18.4623 18.4778L18.4622 18.4778C18.2708 18.6692 18.0201 18.7652 17.7687 18.7652C17.5173 18.7652 17.2666 18.6692 17.0752 18.4778L9.67671 11.0794L9.49993 10.9026L9.32316 11.0794L1.9249 18.4778C1.73352 18.6692 1.48277 18.7652 1.23139 18.7652C0.979939 18.7652 0.72904 18.6692 0.537959 18.4779L0.537834 18.4778C0.154055 18.0942 0.154055 17.4744 0.537834 17.0908L0.537878 17.0908L7.93613 9.69235L8.1129 9.51558L7.93613 9.3388L0.537878 1.94035L0.537834 1.94031C0.154055 1.55671 0.154055 0.93697 0.537834 0.553372L0.537876 0.553331C0.921448 0.169761 1.54103 0.169686 1.9249 0.553328C1.92492 0.553343 1.92493 0.553358 1.92494 0.553372L9.32316 7.95178L9.49993 8.12856L9.67671 7.95178L17.0752 0.553331C17.4588 0.169723 18.0786 0.169723 18.4622 0.553331L18.4623 0.553372C18.846 0.93697 18.846 1.55671 18.4623 1.94031L18.4622 1.94035L11.064 9.3388Z" fill="white" stroke="#900000" strokeWidth="0.5"/>
</g>
<defs>
<clipPath id="clip0">
<rect width="19" height="19" fill="white"/>
</clipPath>
</defs>
</svg>
