<svg width="63" height="50" viewBox="0 0 63 50" fill="none" xmlns="http://www.w3.org/2000/svg">
<path opacity="0.5" d="M12 1V6.54938H56.3746V38H62V1H12Z" stroke="#E9ECF1" strokeWidth="2" strokeMiterlimit="10" strokeLinecap="round" strokeLinejoin="round"/>
<path opacity="0.5" d="M6 6V11.5494H50.3746V43H56V6H6Z" stroke="#C8CFDB" strokeWidth="2" strokeMiterlimit="10" strokeLinecap="round" strokeLinejoin="round"/>
<path d="M49.8638 12H1V48.6477H49.8638V12Z" stroke="#92A0B8" strokeWidth="2" strokeMiterlimit="10" strokeLinecap="round" strokeLinejoin="round"/>
<path d="M45.2839 16.5811H5.58105V44.0684H45.2839V16.5811Z" stroke="#92A0B8" strokeWidth="2" strokeMiterlimit="10" strokeLinecap="round" strokeLinejoin="round"/>
<path d="M45.2846 44.0668L33.0684 22.689L24.6685 37.3862L17.7979 28.7985L5.58105 44.0683L20.853 44.0668L20.8516 44.0683L45.2846 44.0668Z" stroke="#92A0B8" strokeWidth="2" strokeMiterlimit="10" strokeLinecap="round" strokeLinejoin="round"/>
<path d="M14.3765 33.0748L17.7976 28.7983L20.2656 31.8825C21.5573 30.7641 22.3778 29.1136 22.3778 27.2697C22.3778 23.8978 19.643 21.1616 16.2704 21.1616C12.8971 21.1616 10.1631 23.8971 10.1631 27.2697C10.1638 29.982 11.9316 32.2753 14.3765 33.0748Z" stroke="#92A0B8" strokeWidth="2" strokeMiterlimit="10" strokeLinecap="round" strokeLinejoin="round"/>
</svg>
