<svg width="52" height="39" viewBox="0 0 52 39" fill="none" xmlns="http://www.w3.org/2000/svg">
<g opacity="0.5">
<path d="M50.7281 1H1.86426V37.6477H50.7281V1Z" stroke="#92A0B8" strokeWidth="2" strokeMiterlimit="10" strokeLinecap="round" strokeLinejoin="round"/>
<path d="M46.1481 5.58105H6.44531V33.0684H46.1481V5.58105Z" stroke="#92A0B8" strokeWidth="2" strokeMiterlimit="10" strokeLinecap="round" strokeLinejoin="round"/>
<path d="M46.1488 33.0668L33.9327 11.689L25.5328 26.3862L18.6622 17.7985L6.44531 33.0683L21.7173 33.0668L21.7158 33.0683L46.1488 33.0668Z" stroke="#92A0B8" strokeWidth="2" strokeMiterlimit="10" strokeLinecap="round" strokeLinejoin="round"/>
<path d="M15.2407 22.0748L18.6619 17.7983L21.1299 20.8825C22.4215 19.7641 23.242 18.1136 23.242 16.2697C23.242 12.8978 20.5073 10.1616 17.1347 10.1616C13.7614 10.1616 11.0273 12.8971 11.0273 16.2697C11.0281 18.982 12.7959 21.2753 15.2407 22.0748Z" stroke="#92A0B8" strokeWidth="2" strokeMiterlimit="10" strokeLinecap="round" strokeLinejoin="round"/>
</g>
</svg>
