<svg width="52" height="39" viewBox="0 0 52 39" fill="none" xmlns="http://www.w3.org/2000/svg">
<g opacity="0.2">
<path d="M50.5914 1H1.72754V37.6477H50.5914V1Z" stroke="#92A0B8" strokeWidth="2" strokeMiterlimit="10" strokeLinecap="round" strokeLinejoin="round"/>
<path d="M46.0114 5.58105H6.30859V33.0684H46.0114V5.58105Z" stroke="#92A0B8" strokeWidth="2" strokeMiterlimit="10" strokeLinecap="round" strokeLinejoin="round"/>
<path d="M46.0121 33.0668L33.796 11.689L25.396 26.3862L18.5255 17.7985L6.30859 33.0683L21.5806 33.0668L21.5791 33.0683L46.0121 33.0668Z" stroke="#92A0B8" strokeWidth="2" strokeMiterlimit="10" strokeLinecap="round" strokeLinejoin="round"/>
<path d="M15.104 22.0748L18.5252 17.7983L20.9932 20.8825C22.2848 19.7641 23.1053 18.1136 23.1053 16.2697C23.1053 12.8978 20.3706 10.1616 16.998 10.1616C13.6247 10.1616 10.8906 12.8971 10.8906 16.2697C10.8913 18.982 12.6592 21.2753 15.104 22.0748Z" stroke="#92A0B8" strokeWidth="2" strokeMiterlimit="10" strokeLinecap="round" strokeLinejoin="round"/>
</g>
</svg>
