<svg width="51" height="40" viewBox="0 0 51 40" fill="none" xmlns="http://www.w3.org/2000/svg">
<path d="M49.8638 1.49609H1V38.1438H49.8638V1.49609Z" stroke="#92A0B8" strokeWidth="2" strokeMiterlimit="10" strokeLinecap="round" strokeLinejoin="round"/>
<path d="M45.2839 6.07715H5.58105V33.5645H45.2839V6.07715Z" stroke="#92A0B8" strokeWidth="2" strokeMiterlimit="10" strokeLinecap="round" strokeLinejoin="round"/>
<path d="M45.2846 33.5629L33.0684 12.1851L24.6685 26.8823L17.7979 18.2946L5.58105 33.5644L20.853 33.5629L20.8516 33.5644L45.2846 33.5629Z" stroke="#92A0B8" strokeWidth="2" strokeMiterlimit="10" strokeLinecap="round" strokeLinejoin="round"/>
<path d="M14.3765 22.5709L17.7976 18.2944L20.2656 21.3785C21.5573 20.2601 22.3778 18.6097 22.3778 16.7658C22.3778 13.3939 19.643 10.6577 16.2704 10.6577C12.8971 10.6577 10.1631 13.3932 10.1631 16.7658C10.1638 19.4781 11.9316 21.7714 14.3765 22.5709Z" stroke="#92A0B8" strokeWidth="2" strokeMiterlimit="10" strokeLinecap="round" strokeLinejoin="round"/>
</svg>
