<svg width="51" height="39" viewBox="0 0 51 39" fill="none" xmlns="http://www.w3.org/2000/svg">
<path d="M49.8638 1H1V37.6477H49.8638V1Z" stroke="#92A0B8" strokeWidth="2" strokeMiterlimit="10" strokeLinecap="round" strokeLinejoin="round"/>
<path d="M45.7028 5.58105H6V33.0684H45.7028V5.58105Z" stroke="#92A0B8" strokeWidth="2" strokeMiterlimit="10" strokeLinecap="round" strokeLinejoin="round"/>
<path d="M42.9955 28.3581C42.946 27.7912 42.4595 27.3665 41.8803 27.4201C39.8827 27.5912 37.8419 27.6654 35.8257 27.6304C35.8195 27.6304 35.8134 27.6304 35.8092 27.6304C35.2484 27.6304 34.7867 28.0818 34.7784 28.6446C34.7702 29.2136 35.2237 29.6836 35.7927 29.6918C36.1246 29.698 36.4544 29.7 36.7863 29.7C38.5489 29.7 40.3177 29.6238 42.0575 29.4732C42.6245 29.426 43.045 28.925 42.9955 28.3581Z" fill="#92A0B8"/>
<path d="M15.2112 9.08551C13.1126 9.05662 10.9975 9.12465 8.91951 9.304C8.35256 9.35145 7.93202 9.85239 7.98149 10.4192C8.02894 10.9553 8.47828 11.3613 9.00812 11.3613C9.03701 11.3613 9.06581 11.3593 9.09673 11.3572C11.1047 11.184 13.1496 11.1078 15.1781 11.1469C15.1843 11.1469 15.1905 11.1469 15.1946 11.1469C15.7554 11.1469 16.2171 10.6974 16.2254 10.1326C16.2337 9.56375 15.7801 9.09585 15.2112 9.08551Z" fill="#92A0B8"/>
<path d="M25.7717 18.1329L25.4859 18.0783C22.841 17.5898 21.6067 16.774 21.6067 15.5061C21.6067 14.0978 23.3917 12.9079 25.5066 12.9079C27.541 12.9079 29.2896 14.0122 29.4039 15.3658C29.4637 16.0803 30.108 16.6389 30.807 16.5506C31.5215 16.4908 32.0516 15.8621 31.9918 15.1475C31.7579 12.3882 28.97 10.3096 25.504 10.3096C21.9211 10.3096 19.0059 12.6402 19.0059 15.5061C19.0059 18.1744 21.0272 19.8997 25.2416 20.6765L25.5222 20.7285C28.1646 21.217 29.3961 22.0328 29.3961 23.3007C29.3961 24.709 27.6112 25.8989 25.4963 25.8989C23.4618 25.8989 21.7133 24.7973 21.5989 23.4411C21.5391 22.7265 20.913 22.1861 20.1959 22.2563C19.4813 22.3161 18.9513 22.9447 19.0111 23.6593C19.2424 26.4161 22.0329 28.4972 25.4988 28.4972C29.0818 28.4972 31.997 26.1666 31.9996 23.3034C31.9997 20.6323 29.9809 18.9097 25.7717 18.1329Z" fill="#92A0B8"/>
<path d="M25.5023 9C24.7852 9 24.2031 9.58204 24.2031 10.2992V28.4866C24.2031 29.2038 24.7852 29.7858 25.5023 29.7858C26.2194 29.7858 26.8014 29.2038 26.8014 28.4866V10.2992C26.8014 9.58204 26.2194 9 25.5023 9Z" fill="#92A0B8"/>
</svg>
