<svg width="44" height="44" viewBox="0 0 44 44" fill="none" xmlns="http://www.w3.org/2000/svg">
<g clip-path="url(#clip0)">
<path d="M2.74996 2.99388C-0.707708 6.58538 -4.15891e-05 10.4005 -4.15891e-05 21.9909C-4.15891e-05 31.6159 -1.67938 41.2647 7.10963 43.5362C9.85413 44.242 34.1715 44.2421 36.9123 43.5325C40.5716 42.5884 43.549 39.6202 43.956 34.4447C44.0128 33.7224 44.0128 10.2722 43.9541 9.53521C43.5215 4.02238 40.128 0.845211 35.6565 0.201711C34.6316 0.0532111 34.4263 0.00921104 29.1683 4.43757e-05C10.5178 0.00921104 6.42946 -0.821289 2.74996 2.99388Z" fill="url(#paint0_linear)"/>
<path d="M21.9962 5.75494C15.3393 5.75494 9.01799 5.16277 6.60349 11.3594C5.60616 13.9188 5.75099 17.2426 5.75099 22.0019C5.75099 26.1783 5.61716 30.1034 6.60349 32.6426C9.01249 38.8429 15.3852 38.2489 21.9925 38.2489C28.367 38.2489 34.9395 38.9126 37.3833 32.6426C38.3825 30.0576 38.2358 26.7833 38.2358 22.0019C38.2358 15.6549 38.586 11.5574 35.5078 8.4811C32.3912 5.36444 28.1763 5.75494 21.9888 5.75494H21.9962ZM20.5405 8.68277C34.4262 8.66077 36.1935 7.11711 35.2182 28.5616C34.8717 36.1461 29.0967 35.3138 21.998 35.3138C9.05465 35.3138 8.68249 34.9434 8.68249 21.9946C8.68249 8.89544 9.70916 8.6901 20.5405 8.6791V8.68277ZM30.6678 11.3796C29.5917 11.3796 28.719 12.2523 28.719 13.3284C28.719 14.4046 29.5917 15.2773 30.6678 15.2773C31.744 15.2773 32.6167 14.4046 32.6167 13.3284C32.6167 12.2523 31.744 11.3796 30.6678 11.3796ZM21.9962 13.6584C17.389 13.6584 13.6545 17.3948 13.6545 22.0019C13.6545 26.6091 17.389 30.3436 21.9962 30.3436C26.6033 30.3436 30.336 26.6091 30.336 22.0019C30.336 17.3948 26.6033 13.6584 21.9962 13.6584ZM21.9962 16.5863C29.1553 16.5863 29.1645 27.4176 21.9962 27.4176C14.8388 27.4176 14.8278 16.5863 21.9962 16.5863Z" fill="white"/>
</g>
<defs>
<linearGradient id="paint0_linear" x1="2.83433" y1="41.1897" x2="43.7277" y2="5.797" gradientUnits="userSpaceOnUse">
<stop stop-color="#FFDD55"/>
<stop offset="0.5" stop-color="#FF543E"/>
<stop offset="1" stop-color="#C837AB"/>
</linearGradient>
<clipPath id="clip0">
<rect width="44" height="44" fill="white"/>
</clipPath>
</defs>
</svg>
