<svg width="42" height="42" viewBox="0 0 42 42" fill="none" xmlns="http://www.w3.org/2000/svg">
<g clip-path="url(#clip0)">
<path d="M25.1032 38.3067V32.1504H19.3574L20.9994 38.3067H25.1032Z" fill="#B4D2D7"/>
<path d="M16.8965 32.1504H21.0003V38.3067H16.8965V32.1504Z" fill="#E1EBF0"/>
<path d="M42.0003 29.66L19.3584 28.0181L21.0003 34.6113H42.0003V29.66Z" fill="#E1EBF0"/>
<path d="M35.8444 39.5371V37.0762H21.0007L20.1797 38.3066L21.0007 39.5371H35.8444Z" fill="#E1EBF0"/>
<path d="M6.15625 37.0762H21V39.5371H6.15625V37.0762Z" fill="#FFF5F5"/>
<path d="M0 29.66V34.6113H21V28.0181L0 29.66Z" fill="#FFF5F5"/>
<path d="M41.9994 2.46289H20.9994L19.3574 16.0605L20.9994 29.66H41.9994V2.46289Z" fill="#48519D"/>
<path d="M0 2.46289H21V29.66H0V2.46289Z" fill="#48519D"/>
<path d="M39.5384 4.92383H20.9994L19.3574 16.0742L20.9994 27.1971H39.5384V4.92383Z" fill="#E1EBF0"/>
<path d="M2.46094 4.92383H21V27.1971H2.46094V4.92383Z" fill="#FFF5F5"/>
<path d="M16.4268 21.1261C15.2928 21.1261 14.2841 20.4 13.9178 19.319L13.893 19.2376C13.8066 18.9513 13.7704 18.7106 13.7704 18.4698V13.6401L12.052 19.3764C11.831 20.2201 12.3346 21.0948 13.1796 21.3279L24.1329 24.2612C24.2696 24.2967 24.4063 24.3136 24.541 24.3136C25.2464 24.3136 25.891 23.8454 26.0717 23.1554L26.7099 21.1261H16.4268Z" fill="#ECEFF1"/>
<path d="M29.0001 10.3238V18.4699C29.0001 19.3482 28.2846 20.0637 27.4063 20.0637H16.4268C16.356 20.0637 16.2852 20.0565 16.2213 20.0494C15.4776 19.9575 14.8968 19.3482 14.8401 18.5974C14.833 18.5548 14.833 18.5123 14.833 18.4699V10.3238C14.833 9.44542 15.5484 8.72998 16.4268 8.72998H27.4063C28.2846 8.72998 29.0001 9.44542 29.0001 10.3238Z" fill="#ECEFF1"/>
<path d="M19.7914 12.2717C19.7914 13.0541 19.1571 13.6885 18.3747 13.6885C17.5923 13.6885 16.958 13.0541 16.958 12.2717C16.958 11.4894 17.5923 10.855 18.3747 10.855C19.1571 10.855 19.7914 11.4894 19.7914 12.2717Z" fill="#FFC107"/>
<path d="M29.0004 16.4792V18.4698C29.0004 19.3481 28.285 20.0636 27.4066 20.0636H16.4271C16.3563 20.0636 16.2855 20.0564 16.2217 20.0493L23.5177 12.7534C23.9994 12.2717 24.7927 12.2717 25.2744 12.7534L29.0004 16.4792Z" fill="#388E3C"/>
<path d="M24.7921 20.0638H16.4265C16.3557 20.0638 16.2849 20.0567 16.2211 20.0495C15.4773 19.9576 14.8965 19.3484 14.8398 18.5975L18.2045 15.2328C18.6862 14.7512 19.4794 14.7512 19.9612 15.2328L24.7921 20.0638Z" fill="#4CAF50"/>
</g>
<defs>
<clipPath id="clip0">
<rect width="42" height="42" fill="white"/>
</clipPath>
</defs>
</svg>
