<svg width="42" height="42" viewBox="0 0 42 42" fill="none" xmlns="http://www.w3.org/2000/svg">
<g clip-path="url(#clip0)">
<path d="M21 42C32.598 42 42 32.598 42 21C42 9.40202 32.598 0 21 0C9.40202 0 0 9.40202 0 21C0 32.598 9.40202 42 21 42Z" fill="#BFE1FF"/>
<path d="M41.9999 21.019L26.6894 5.7085L17.4517 12.5265L11.665 34.8796L18.6561 41.8707C19.4255 41.9561 20.2076 41.9999 20.9999 41.9999C32.5915 41.9999 41.9896 32.6082 41.9999 21.019Z" fill="#87C7FF"/>
<path d="M11.665 34.8796H30.8877L37.5554 25.9147L28.6239 25.1455L26.592 25.9147H11.665V34.8796Z" fill="#7584F2"/>
<path d="M37.5553 25.9147L28.6238 25.1455L26.5919 25.9147H21.0098V34.8796H30.8876L37.5553 25.9147Z" fill="#606AEA"/>
<path d="M4.81152 25.9148L11.6651 34.8796L25.4298 8.06747L15.6775 5.7085L4.81152 25.9148Z" fill="#06B26B"/>
<path d="M37.5558 25.9148H26.5924L15.7266 5.7085H26.6899L37.5558 25.9148Z" fill="#FFCE00"/>
<path d="M37.5553 25.9148L26.6894 5.7085H21.0098V15.5341L26.5919 25.9148H37.5553Z" fill="#FFB30B"/>
</g>
<defs>
<clipPath id="clip0">
<rect width="42" height="42" fill="white"/>
</clipPath>
</defs>
</svg>
