<svg width="42" height="42" viewBox="0 0 42 42" fill="none" xmlns="http://www.w3.org/2000/svg">
<g clip-path="url(#clip0)">
<path d="M21 42C32.598 42 42 32.598 42 21C42 9.40202 32.598 0 21 0C9.40202 0 0 9.40202 0 21C0 32.598 9.40202 42 21 42Z" fill="#4E85E5"/>
<path d="M33.0566 13.9789L21.6125 13.2695H20.3887L13.7067 17.9218L9.2334 22.7967L13.7067 28.144L26.7704 41.1972C35.0589 38.8339 41.2545 31.5067 41.9377 22.6352L33.0566 13.9789Z" fill="#326CBF"/>
<path d="M20.1348 22.5082L13.9733 18.5349C13.7734 18.4059 13.5133 18.4196 13.3279 18.5687L9.18551 21.9023C8.89209 22.1383 8.91596 22.5924 9.23244 22.7966L15.3939 26.7699C15.5939 26.8989 15.8539 26.8852 16.0393 26.7361L20.1817 23.4025C20.4751 23.1664 20.4513 22.7123 20.1348 22.5082Z" fill="white"/>
<path d="M21.8174 23.4026L25.9598 26.736C26.1451 26.8852 26.4052 26.8988 26.6052 26.7698L32.7666 22.7965C33.0831 22.5924 33.107 22.1383 32.8135 21.9022L28.6711 18.5687C28.4857 18.4195 28.2257 18.406 28.0257 18.5349L21.8643 22.5083C21.5478 22.7124 21.5239 23.1664 21.8174 23.4026Z" fill="#D1D1D1"/>
<path d="M20.1817 12.9676L16.0393 9.63417C15.8539 9.48496 15.5939 9.47142 15.3939 9.60038L9.23244 13.5737C8.91596 13.7778 8.89209 14.2319 9.18551 14.468L13.3279 17.8014C13.5133 17.9507 13.7734 17.9642 13.9733 17.8352L20.1348 13.8619C20.4513 13.6577 20.4751 13.2037 20.1817 12.9676Z" fill="white"/>
<path d="M32.7667 13.5742L26.6052 9.60081C26.4052 9.47186 26.1452 9.48555 25.9598 9.63461L21.8174 12.968C21.5239 13.204 21.5478 13.6582 21.8643 13.8623L28.0258 17.8357C28.2258 17.9646 28.4858 17.9509 28.6712 17.8019L32.8137 14.4685C33.107 14.2323 33.0831 13.7783 32.7667 13.5742Z" fill="#D1D1D1"/>
<path d="M20.698 23.9877L16.0591 27.6882C15.8909 27.8222 15.656 27.8341 15.4753 27.7176L14.332 26.9803C13.9987 26.7654 13.5596 27.0047 13.5596 27.4013V27.8C13.5596 27.975 13.651 28.1375 13.8008 28.2283L20.7072 32.4149C20.8668 32.5116 21.067 32.5116 21.2265 32.4149L28.1328 28.2283C28.2826 28.1375 28.3741 27.9752 28.3741 27.8V27.4442C28.3741 27.0477 27.935 26.8083 27.6017 27.0232L26.5253 27.7173C26.3443 27.8341 26.1089 27.822 25.9407 27.6873L21.3237 23.9886C21.1408 23.842 20.881 23.8417 20.698 23.9877Z" fill="white"/>
<path d="M27.6013 27.023L26.525 27.717C26.344 27.8337 26.1085 27.8217 25.9404 27.6869L21.3233 23.9882C21.242 23.923 21.1451 23.8886 21.0469 23.8813V32.4799C21.1092 32.4697 21.1702 32.4484 21.2262 32.4146L28.1326 28.228C28.2824 28.1372 28.3738 27.9749 28.3738 27.7997V27.4439C28.3736 27.0473 27.9345 26.808 27.6013 27.023Z" fill="#D1D1D1"/>
</g>
<defs>
<clipPath id="clip0">
<rect width="42" height="42" fill="white"/>
</clipPath>
</defs>
</svg>
