<svg width="44" height="44" viewBox="0 0 44 44" fill="none" xmlns="http://www.w3.org/2000/svg">
<g clip-path="url(#clip0)">
<path d="M10.2667 32.2668C15.9368 32.2668 20.5334 27.6702 20.5334 22.0001C20.5334 16.33 15.9368 11.7334 10.2667 11.7334C4.59656 11.7334 0 16.33 0 22.0001C0 27.6702 4.59656 32.2668 10.2667 32.2668Z" fill="#1C9AD6"/>
<path d="M12.4667 31.5334C6.79654 31.5334 2.2 26.9368 2.2 21.2667C2.2 17.1427 4.63194 13.5873 8.13957 11.9546C3.49027 12.9343 0 17.0594 0 22.0001C0 27.6702 4.59654 32.2668 10.2667 32.2668C11.8128 32.2668 13.2788 31.9243 14.5938 31.3123C13.9074 31.4568 13.196 31.5334 12.4667 31.5334Z" fill="#1C74BB"/>
<path d="M33.7335 32.2668C39.4036 32.2668 44.0002 27.6702 44.0002 22.0001C44.0002 16.33 39.4036 11.7334 33.7335 11.7334C28.0634 11.7334 23.4668 16.33 23.4668 22.0001C23.4668 27.6702 28.0634 32.2668 33.7335 32.2668Z" fill="#FA597D"/>
<path d="M35.9335 31.5334C30.2633 31.5334 25.6668 26.9368 25.6668 21.2667C25.6668 17.1427 28.0987 13.5873 31.6064 11.9546C26.9571 12.9342 23.4668 17.0594 23.4668 22.0001C23.4668 27.6702 28.0633 32.2668 33.7335 32.2668C35.2796 32.2668 36.7456 31.9243 38.0606 31.3123C37.3742 31.4568 36.6629 31.5334 35.9335 31.5334Z" fill="#E0365C"/>
</g>
<defs>
<clipPath id="clip0">
<rect width="44" height="44" fill="white"/>
</clipPath>
</defs>
</svg>
