<svg width="42" height="42" viewBox="0 0 42 42" fill="none" xmlns="http://www.w3.org/2000/svg">
<g clip-path="url(#clip0)">
<path d="M21 42C32.598 42 42 32.598 42 21C42 9.40202 32.598 0 21 0C9.40202 0 0 9.40202 0 21C0 32.598 9.40202 42 21 42Z" fill="#37465C"/>
<path d="M22.6457 8.97998L18.8105 31.3011L28.2328 40.7214C34.3021 38.4948 39.0571 33.5462 41.0206 27.3548L22.6457 8.97998Z" fill="#29394C"/>
<path d="M26.6755 28.0978C26.6755 28.0978 25.9622 28.9186 24.6066 28.9186C23.2512 28.9186 22.6451 28.0978 22.6451 26.8854V20.0133H27.0277V15.8489H22.6451V8.97998H19.3451C18.8292 12.0622 16.7969 14.6295 14.04 15.8893V20.0133H17.259V27.9267C17.259 29.0252 18.2934 33.0203 23.5725 33.0203C26.6756 33.0203 27.9594 31.0227 27.9594 31.0227L26.6755 28.0978Z" fill="white"/>
<path d="M26.6756 28.0978C26.6756 28.0978 25.9624 28.9186 24.6067 28.9186C23.2514 28.9186 22.6453 28.0978 22.6453 26.8854V20.0135H27.0279V15.849H22.6453V8.97998H20.8584V32.5823C21.607 32.8538 22.5011 33.0204 23.5726 33.0204C26.6756 33.0204 27.9595 31.0228 27.9595 31.0228L26.6756 28.0978Z" fill="#D1D1D1"/>
</g>
<defs>
<clipPath id="clip0">
<rect width="42" height="42" fill="white"/>
</clipPath>
</defs>
</svg>
